<svg id="main-logo" xmlns="http://www.w3.org/2000/svg" x="0px" y="0px" viewBox="422 -300.1 1440 1440"
  style="enable-background:new 422 -300.1 1440 1440;" xml:space="preserve">
  <style type="text/css">
    .st0 {
      fill: #46636B;
    }

    .st1 {
      fill: #C3FB0A;
    }

    .st2 {
      fill: #F3F3F2;
    }

    .st3 {
      fill: #F13B29;
    }

    .st4 {
      fill: #425C60;
    }

    .st5 {
      fill: #888383;
    }

    .st6 {
      fill: #FFFFFE;
    }

    .st7 {
      fill: #BCBDBD;
    }
  </style>
  <g id="Elipse_1_copia">
    <circle class="st0" cx="1142" cy="419.9" r="672" />
  </g>
  <g id="Grupo_1_copia_2_Imagen">
    <g>
      <path class="st1" d="M1166.5-97.8c0.3,1,1.2,0.9,2,0.9c9.1,0.1,18.2,1.2,27.2,2.2c10.6,1.1,21.2,2.8,31.7,4.8
			c28.1,5.4,55.5,13.3,82.1,24c7,2.8,13.8,5.9,20.7,8.9c0.7,0.3,1.5,0.5,2.2,0.8c2.1,1.1,4.2,2.3,6.3,3.3
			c40.2,19.6,76.5,44.7,109,75.3c4.1,3.8,8.1,7.7,12.2,11.5c0.7,1.7,2.1,2.8,3.3,4c12.4,12.7,23.9,26.1,34.7,40.3
			c17.5,23.1,32.8,47.5,45.7,73.5c4,8,7.7,16.1,11.5,24.2c0.2,0.6,0.2,1.3,0.5,1.8c5,10.7,8.9,21.8,12.8,33c0.8,2.3,1.3,4.6,1.5,7
			c-0.1,1-0.1,1.9-0.2,2.9c-1.1,11-9.3,19.7-20.1,21.5c-11.1,1.8-21.8-4.1-26.1-14.4c-0.7-1.6-1.3-3.3-1.8-4.9
			c-4.9-13.9-10.4-27.5-16.7-40.8c-23.3-49.2-54.7-92.3-95-129c-24.8-22.6-52.1-41.8-81.9-57.4c-44-23-90.6-37.2-140-42.6
			c-15-1.6-30-2.5-45-2.4c-10.1,0.1-20.1,0.6-30.2,1.5c-14.2,1.2-28.3,3.1-42.2,5.8c-34.2,6.6-67,17.6-98.4,32.6
			c-35.3,16.9-67.4,38.5-96.8,64.4c-1.6,1.4-3.2,2.7-4.9,3.9c-10,6.5-23,4.7-31-4.2c-0.7-0.8-1.5-1.7-2.2-2.5
			c-0.4-1.4-1-2.7-2.1-3.8c-0.4-1.4-0.7-2.8-1.1-4.2c-2.1-9.2,0.4-17.1,7.4-23.4c49.1-43.8,104.8-76.2,167.4-96.5
			c21.3-6.9,43-12.1,65.1-15.8c11.7-1.9,23.4-3.5,35.2-4.2c4.3-0.3,8.6-0.7,12.9-1c2.7,0,5.3,0,8,0c0.6,0,1.2-0.2,1.6-0.7
			C1143.4-97.8,1155-97.8,1166.5-97.8z" />
      <path class="st2" d="M1131.9-97.8c-0.4,0.5-1,0.7-1.6,0.7c-2.7,0-5.3,0-8,0c0-0.3,0-0.5,0-0.8
			C1125.5-97.8,1128.7-97.8,1131.9-97.8z" />
      <path class="st3" d="M1169,348.5c-2.6-12.2,0.1-23.5,6.6-33.9c5.4-8.7,12.4-15.8,20.3-22.2c13.6-10.9,29-17.9,45.7-22.3
			c10.5-2.8,21.3-4.3,32.1-5.1c10.3-0.7,20.5-0.6,30.7,0.3c22.6,2,44.5,7,65.2,16.3c3.3,1.5,6.6,3.2,9.9,4.8c1.4,1,2.8,2,4.3,2.9
			c4.9,3.2,9.6,6.8,13.5,11.3c0.7,0.8,1.6,1.6,1.3,2.9c-2.9-0.1-5.7,0.1-8.6,0.7c-6.1,1.2-12,3.3-17.7,5.9
			c-11.9,5.3-22.8,12.2-33.2,19.9c-23.7,17.7-43.9,39-62.2,62.1c-0.4,0.5-0.7,1-1.1,1.6c-0.3,0.6,0.1,1.4,0.7,1.4
			c4.8-0.1,9.6-0.3,14.3-0.4c0.6,0.6,1.3,0.9,2.1,0.9c4.5,0.4,8.8,1.4,12.9,3.2c1.4,0.6,2.8,0.7,4.2,0.5c6.8-0.8,13.6-2,20-4.6
			c4.1-1.7,8.4-2.9,12-5.7c1.4-0.7,2.9-1.3,4.3-2.1c10.2-5.6,19.7-12.3,28.9-19.5c5.4-4.2,10.9-8.3,15.9-13
			c4.2-2.6,7.7-6.1,11.4-9.3c3-2.6,6.4-4.7,8.8-8c4.4-3.4,8.9-6.7,13.3-10.1c3.6-2,7.2-4.1,10.8-6.1c1.5-0.5,3-1,4.5-1.6
			c11.5-4.7,23.4-6.3,35.6-5.1c10,1,19.3,4.1,27.9,9.3c1.2,0.7,2.5,1.4,3.7,2.1c7.3,5.6,13.7,12.1,18.3,20.1
			c1.2,3.2,2.5,6.4,3.7,9.5c0,0.5-0.4,1.1-0.8,0.9c-1.3-0.7-2.4-1.5-3.6-2.3c-11.5-7.4-24.1-10-37.5-8.7
			c-10.9,1.1-21.2,4.5-31.1,9.2c-7.4,3.5-14.3,7.8-21,12.4c-11.3,7.8-22.8,15.3-34.9,22c-12.1,6.6-24.5,12.3-37.9,16
			c-11.6,3.2-23.4,4.9-35.5,3.5c-1.5-0.2-3.1-0.2-5.6-0.3c3.2,3.7,5.2,7.3,7.3,10.8c0.5,1.6,0.6,3.3,1.7,4.7c0.3,0.7-0.2,1.9,1.1,2
			l-0.1,0c-0.4,0.6-0.4,1.2-0.2,1.8c1.9,10,0.7,19.6-2.5,29.2c-3.1,9.4-6.1,18.8-9.1,28.2c-2.9,8.9-5.8,17.9-7.6,27.1
			c-0.7,3.8-1.2,7.6-0.6,11.4c0.5,3.6,2.1,6.3,5.9,7.3c2.5,1,5,0.7,7.4,0c7.9-2.2,15-6,21.3-11.1c2.2-1.5,4.5-3,6.7-4.7
			c2.4-1.8,5.1-3.3,6.9-5.8c5.5-4,10.3-8.7,15.3-13.2c0.4-0.4,0.7-1,1.1-1.5c2-1.1,3.4-2.9,5-4.4c8.1-7.8,15.6-16.3,22.6-25.1
			c0.3-0.2,0.6-0.3,0.8-0.5c7-8.1,13.9-16.2,20.9-24.2c1.2-1.2,2.8-1.2,4.3-1.2c1.7,0.5,3.3,1.2,5,1.6c5.7,1.4,11.2,3.3,17,4.2
			c1.9,1.3,4.1,1.4,6.3,2c0.9,0.2,1.3,0.8,1.4,1.6c-0.6,0.6-1.1,1.1-1.6,1.7c-21.9,26.6-43.9,53.3-65.8,79.9c-1.2,1.5-2.4,3-3.4,4.6
			c-0.7,1.1-1.2,2.3-1.6,3.4c-0.4,1.2,0.2,2.2,1.1,2.9c0.8,0.7,1.7,0.8,2.7,0.9c3.3,0.2,6.3-0.4,9.2-2.1c1,0.1,1.9-0.4,2.7-0.8
			c3.7-1.7,7.1-3.8,10.4-5.9c11.1-7,21.2-15.4,30.9-24.3c7.7-7,14.9-14.5,22.1-22c1.2-1.3,2.4-2.6,3.5-4c9.9-12.3,19.9-24.6,29.7-37
			c2.3-2.9,5-5.4,6.6-8.8c3.4-3.9,7-7.8,9.7-12.2c0.4-0.4,1-0.8,1.3-1.3c5.4-6.8,10.9-13.6,16.3-20.5c0.8-1,1.4-2.1,2-3.2
			c0.9-0.1,1.3-0.9,1.8-1.5c4-5,7.9-10,11.9-15c2.3-2.9,4.9-5.4,6.7-8.6c2.3-2.6,4.6-5.3,7-7.9c7.1,1.8,14.2,3.6,21.3,5.5
			c3.2,0.8,6.5,1.7,9.7,2.6c0.8,0.2,1.5,0.5,2,1.2c-0.1,1-0.8,1.7-1.4,2.4c-12,15-23.9,29.9-35.9,44.8c-15,18.7-30,37.3-45.1,55.9
			c-0.4,0.5-0.7,1-1.1,1.6c-0.3,0.1-0.5,0.3-0.6,0.6c-0.7,0.4-1.2,0.9-0.8,1.8c-0.1,0-0.3,0-0.4,0c-0.1,0.1-0.1,0.2-0.1,0.4
			c0.2-0.1,0.4-0.2,0.6-0.4c0.5,0,0.8-0.1,0.9-0.6c0.4-0.3,0.9-0.7,1.3-1c1.1-0.6,2.2-1.2,3.3-1.9c5.6-3.5,11.4-6.5,17.5-8.8
			c0.9-0.3,1.7-0.8,2.6-1.2c2.1,0.3,4-0.7,6.1-1.1c7-1.3,13.9-1.3,20.8,0.2c4,0.9,7.3,3,10.7,5.1c2.7,3,4.6,6.4,5.6,10.3
			c1.1,8.4-1.5,15.8-6.3,22.5c-5.6,7.8-13.1,13-21.7,16.8c-12.8,5.5-26.2,6.8-39.9,5.4c-1.2-0.1-2.4-0.8-3.7,0.1
			c0.9,2.9,2.1,5.7,2.8,8.6c1.5,5.8,1.9,11.7,1.9,17.6c0,3.5,0.2,7,1,10.5c0.7,3.1,2,5.7,4.9,7.3c2.3,1.6,4.7,1.7,7.3,1.1
			c2.5-0.5,4.9-1.4,7.2-2.5c7.7-3.7,14.5-8.7,21.2-13.9c1.8-1.4,3.3-2.9,4.6-4.8c9.3-13.5,20.4-25.4,33.3-35.6
			c2.4-1.9,4.7-3.8,7.1-5.7c2.6-1.6,5.3-3,7.6-5c2.9-1.4,5.9-2.8,8.6-4.7c2.2-0.9,4.4-1.8,6.6-2.7c8.2-3.3,16.7-5.3,25.6-5.8
			c5.5-0.3,10.9,0.3,16.1,1.7c5,1.3,9.4,4,13.2,7.5c2.5,3.2,4.1,6.8,5.4,10.6c0.9,8.3-0.6,16.2-3.8,23.9c-1.7,4.1-2.6,3.9,2.7,5.9
			c1.7,0.6,3.3,1.2,5.1,1.1c3.5,1.5,7.2,0.9,10.8,0.5c0.5-0.1,1-0.1,1.5-0.2c0.6,0.1,1-0.1,1.3-0.5c3.9-0.2,7.1-2.5,10.5-4.1
			c4.1,0.8,4.5,1.6,2.6,4.9c-3.2,1.7-6.4,3.5-9.6,5.2c-5.8,2-11.7,3.5-17.9,3.7c-4.2-0.3-8.3-0.7-12.3-1.9c-1.2-0.4-2.2,0-2.8,1.1
			c-0.5,1-1.1,1.9-1.7,2.9c-7.1,11.1-15.2,21.4-24.6,30.6c-11.4,11-24,20.2-38.6,26.4c-10.9,4.7-22.2,7.2-34.1,6.2
			c-7.1-0.6-13.8-2.4-19.6-6.8c-0.6-1.2-1.6-2.1-2.8-2.8c-2.1-3-3.5-6.4-4.3-10c-0.4-1.9-0.6-3.8-0.9-5.6c0.3-5.9,1.4-11.7,2.9-17.5
			c0.3-0.4,0.5-0.9,0.1-1.2c-0.5-0.4-0.8,0.1-1,0.4c-1.1,0.8-2.3,1.6-3.4,2.5c-6.2,5-12.6,9.8-19.4,13.9c-3.4,2-6.9,4-10.6,5.4
			c-2.2,0.9-4.5,1.7-6.7,2.3c-7.1,2-13.9,1.2-20-3.3c-0.9-1-1.8-1.9-2.8-2.9c-1.5-3.3-3.2-6.5-3.9-10.2c-1.6-8.7-1.2-17.4-0.5-26.1
			c0.4-5.4,0.8-10.8,0.5-16.2c0.8-4.2,0.5-8.3-1.5-12.1c-1.3-2.5-2.4-2.9-4.2-0.5c-0.5,0.6-1,1.3-1.5,1.9
			c-12.5,15.5-25,31.1-37.5,46.6c-3.5,4.4-2.1,3.6-7.5,2.3c-7.4-1.9-14.7-4-22.1-5.9c-1.4-0.4-2.9-1.4-4.5-0.4l0.1,0.1
			c0.1-0.1,0.2-0.3,0.2-0.4c-0.1-0.2-0.3-0.4-0.4-0.6c0-0.8-0.1-1.5-0.1-2.3l0.1,0.1c0.7,0,1-0.4,1.1-1c0.8-0.8,1.7-1.5,2.3-2.4
			c8-10,15.9-20,23.9-29.9c0.3-0.4,0.6-0.8,0.8-1.2c0.2-0.4,0.4-1-0.2-1.2c-0.4-0.1-1-0.1-1.3,0.1c-0.9,0.6-1.8,1.4-2.6,2.1
			c-2.1,1.7-4.2,3.5-6.3,5.1c-7.6,6-15.5,11.7-24.1,16.4c-5.3,2.9-10.8,5.4-16.7,7c-6.9,1.9-13.6,1.4-19.9-2.2
			c-0.7-0.4-1.4-0.7-2.2-1c-0.1,0-0.4,0.4-0.6,0.6c0,0,0,0.1,0,0.1c0.6-1,0.4-1.2-1-2l0.1,0.1c-0.4-0.5-0.7-1-1.1-1.5
			c-2-2.8-4-5.5-4.1-9.1c0-0.4-0.5-0.8-0.7-1.1c0.5-6.7,1.9-13.2,4.9-19.2c0.3-0.6,0.4-1.2,0-1.8c0.3,0.3,0.5,0.3,0.6,0
			c0.1-0.2-0.1-0.4-0.2-0.6c-0.1,0.2-0.3,0.4-0.4,0.6c-1.8,0.4-2.9,1.9-4.2,3c-6.7,5.4-13.6,10.5-21,15c-6.6,4-13.4,7.4-20.9,9.4
			c-6.5,1.8-13,2.8-19.9,1.6c-5.6-0.9-10.7-3.1-15.4-6.1c-3.6-3.5-6-7.7-7.5-12.5c-0.9-7-0.6-13.8,1.3-20.6c0.2-0.7,0.2-1.6,0.3-2.3
			c1.1-2.8,2.1-5.6,3.2-8.4c4.8-12,11.3-23.1,18.5-33.8c1.1-1.6,2-3.2,3-4.8c4.3-5.8,7.3-12.2,9.3-19.2c3.3-8.2,3.5-16.6,0.9-25
			c-1.8-5.8-5.6-10-10.5-13.3c-5.7-3.8-12.1-5.6-18.8-6.8c-1.6-0.3-2.7,0.3-3.6,1.7c-2.4,3.4-4.9,6.7-7.4,10.1
			c-14,18.5-28.9,36.3-45.5,52.6c-12.2,11.9-25.1,22.8-39.5,31.9c-10.7,6.7-22,12.3-34.3,15.6c-11.6,3.1-23.3,4-35.1,1.5
			c-10.4-2.2-20.2-6.1-28.7-12.7c-2.3-1.7-4.3-3.7-6.5-5.6c-4.9-6-8.5-12.7-10.6-20.1c-0.1-1.3-0.2-2.5-0.3-3.8
			c-1.4-12.1,1.8-22.9,9.8-32c9.1-10.4,20.8-13.7,34.2-11.8c7.5,1.1,13.9,4.5,19.7,9.2c3.3,3.7,5.8,7.8,7.5,12.5
			c-0.1,2,0.7,4-0.1,6.3c-1.5-1.3-2.7-2.4-3.9-3.4c-5-4.3-10.3-8-16.7-10c-4-1.3-8.1-1.7-12.2-0.7c-5.9,1.5-13.3,8.9-10.9,17.7
			c1,3.5,2.8,6.4,5.7,8.6c1.2,1.7,2.9,2.9,4.8,3.8c7.1,3.7,14.4,5.3,22.5,3.6c6.4-1.3,12.5-3.1,18-6.9c4.5-2.1,8.9-4.2,12.6-7.5
			c2.8-1.5,5.4-3.3,7.6-5.6c2.7-1.4,4.9-3.6,7.2-5.5c9.8-8.1,19.1-16.9,28.1-25.9c0.4-0.4,0.8-1,1.1-1.5c3-2.2,5.4-4.9,7.7-7.7
			c3.8-3.1,7.1-6.9,10.3-10.6c0.6-0.5,1.3-0.9,1.9-1.4c7.9-8.2,15.8-16.4,23.7-24.7c0.2-0.2,0.3-0.5,0.5-0.8
			c1.2-1.1,2.4-2.1,3.5-3.2c18.3-18.2,37-35.8,57.7-51.2c0.8-0.6,1.6-1.1,1.7-2.2c1.5,0.5,2.4-0.6,3.4-1.3c11.6-8,23.7-15,36.9-20
			c0.6-0.2,1.1-0.6,1.7-0.9c4.1-1.1,8.2-2.3,12.4-3.4c3.2-0.4,6.3-0.9,9.5-1.3c0.1,0,0.3-0.1,0.4-0.2c0.1-0.1,0-0.3,0-0.6
			c-3.9-3.2-8.4-5.6-13.1-7.7c-11.1-4.9-22.7-7.6-34.7-8.5c-13.9-1.1-27.8-0.5-41.5,2.7c-12.4,2.9-24.1,7.5-34.8,14.4
			c-13.9,9.1-23.9,21.5-31,36.4c-1.8,3.8-3.1,7.7-3.3,11.9c-0.2,5.2,1.1,9.8,6.2,12.5c1.9,2.2,4.6,2.7,7.2,3.4
			c1.5,0.4,3.1,0.6,4.4,1.6c-1.7,1.2-3.3,2.4-5.1,3.5c-8.9,5.5-18.5,7.3-28.7,4.5c-4.7-1.3-8.6-3.9-12.3-7c-0.7-1.1-1.6-2-2.7-2.6
			C1172.5,357.1,1170.5,352.9,1169,348.5z M1432.4,528.1c0.6-0.1,0.8-0.5,1-1l0.1-0.1c0,0-0.1,0.1-0.1,0.1
			C1433.1,527.5,1432.7,527.8,1432.4,528.1c-0.5,0.1-0.8,0.4-0.9,1c-1.1,0.1-1.7,0.8-2.1,1.7c-0.2,0.2-0.5,0.5-0.7,0.7
			c-0.2,0.2-0.5,0.4-0.7,0.6c-0.2,0.3-0.6,0.6-0.1,1.1c0.6,0.5,0.8-0.1,1.1-0.2c0.6-0.2,0.9-0.8,1.1-1.4c0.9-0.6,1.6-1.2,1.5-2.4
			C1432.2,529.1,1432.4,528.7,1432.4,528.1z M1492.9,522.5c0.9,0.9,2.1,0.7,3.2,0.8c6.3,0.1,12.4-0.8,18.5-2.3c7.9-2,15-5.6,20.3-12
			c2.2-2.6,4-5.4,4.1-8.9c0.1-0.6,0.4-1.2,0.4-1.9c0.2-5.8-2.2-8.6-7.9-9.5c-2.1-0.3-4.1-0.5-6.2-0.3c-14,1.3-25.7,7.3-34.8,18
			c-3.2,3.7-6.2,7.7-9.3,11.6c-0.5,0.7-1.6,1.2-0.8,2.5C1484.4,521,1488.5,522.7,1492.9,522.5z M1662.4,514.6c0.7-2.7,0.5-5.4-0.6-8
			c-0.9-2.1-2.4-3.4-4.7-3.5c-2.2-0.2-4.4-0.1-6.6,0.6c-3.2,1.1-6.2,2.6-8.9,4.5c-4.5,3-8.6,6.6-12.5,10.4
			c-10.5,10.4-19.8,21.7-28.3,33.7c-3.6,5.1-6.8,10.4-9.5,16c-2.5,5.2-4.6,10.5-5.7,16.2c-0.5,2.4-0.7,4.8-0.3,7.1
			c0.6,3.8,1.9,7.1,6.1,8.2c1.8,1,3.6,1.2,5.5,0.6c2.3-0.7,4.5-1.4,6.6-2.6c3.9-2.2,7.4-4.9,10.7-8c8.4-7.9,15.8-16.6,22.7-25.8
			c7.8-10.3,15-21,20.5-32.8c1.5-3.2,2.9-6.4,3.5-9.9C1661.8,519.3,1662.4,517,1662.4,514.6z" />
      <path class="st1" d="M987,769.1c1,0.5,2,1,3,1.4c21.9,8.2,44.3,14.5,67.2,18.9c13,2.5,26.2,4.2,39.4,5.4c16.9,1.5,33.9,1.8,50.8,1
			c71.9-3.7,138.1-25.2,198.9-63.8c20-12.7,38.8-27.1,56.3-43c3-2.7,6.3-5,10.2-6c8.9-2.5,16.7-0.3,23.5,5.9
			c0.9,0.9,1.8,1.8,2.8,2.6c2.5,4.2,4.2,8.6,4.9,13.4c-0.1,1.1-0.2,2.2-0.4,3.3c-0.8,6.6-3.6,12.2-8.8,16.5
			c-1.1,0.9-2.2,1.9-3.3,2.8c-41.9,37.2-89,66.1-141.2,86.4c-22.7,8.8-45.9,15.7-69.8,20.7c-13.9,2.9-28,5.2-42.1,6.8
			c-11,1.2-22,2.2-33,2.5c-14.5,0.4-29.1,0.4-43.6-0.6c-8.8-0.6-17.5-1.3-26.3-2.4c-12.5-1.5-25-3.7-37.3-6.3
			c-37-7.8-72.3-20.1-106.1-37c-51.7-25.9-96.5-60.7-134.7-104.1c-32.7-37.2-58.6-78.7-78.3-124.1c-2.4-5.4-4.6-10.9-6.9-16.3
			c-1.7-4.9-3.4-9.9-5.2-14.7c-1-2.8-1.6-5.8-3.1-8.4c-0.3-1.2-0.6-2.5-0.9-3.7c-4.6-15.1,8.2-32.4,26.3-30
			c5.7,0.8,10.6,3.1,14.6,7.3c0.5,0.6,1.1,1.1,1.7,1.6c2.1,3.3,3.4,7,5,10.5c1.2,6,3.6,11.6,6,17.1c0.4,1.4,0.7,2.8,1.2,4.1
			c6.2,16.1,13.4,31.6,21.5,46.8c0.6,1.1,1.1,2.3,2.1,3.1c1.2,2.4,2.4,4.9,3.7,7.2c7.2,12.7,15.1,24.8,23.6,36.6
			c11,15.3,23.1,29.8,36.1,43.5c7.5,7.9,15.2,15.5,23.5,22.6c3.3,2.8,6.2,6,10,8.2c0.3,0.3,0.6,0.5,1,0.8c0.8,1.2,1.8,2.1,3.1,2.6
			c0.5,0.4,0.9,0.9,1.4,1.3c29.8,24,62.4,43.1,97.8,57.5C983.3,768,985,769,987,769.1z" />
      <path class="st3" d="M646.3,222.9c-0.1-3.7-0.9-7.3-0.6-11c0.8-10,4.2-19,9.6-27.3c6-9.3,13.8-16.8,22.7-23.1
			c8-5.7,16.7-10,25.7-13.9c16.8-7.3,34.3-12,52.4-14.7c10.3-1.5,20.7-2.3,31.1-2.1c26.3,0.6,51.3,6.2,74.7,18.4
			c0.7,0.4,1.5,0.6,2.2,0.9c1.4,1,2.9,2,4.4,2.9c8.6,5.4,16.3,11.8,22.8,19.7c2.3,2.8,4.5,5.8,6.7,8.8c0.2,0.6,0.3,1.2,0.7,1.7
			c2.5,4,4.4,8.3,6,12.8c0.4,1,0.9,2,1.4,2.9c0.2,0.8,0.4,1.6,0.6,2.3c4.8,14.4,5.6,29.2,4.2,44.1c-1.2,13.3-4.4,26.1-9,38.7
			c-11.7,32-30.3,59.4-54.7,82.9c-14.4,13.8-30.5,25.3-48.5,34c-13.5,6.5-27.6,10.9-42.5,12.8c-12.6,1.6-25.2,0.9-37.7-1.5
			c-18.3-3.6-34.6-11.1-48.8-23.1c-7-5.9-13.3-12.5-19.6-19.1c-3-3.1-5.9-6.4-8.8-9.5c-1.8-1.8-1.9-1.8-4.1-0.7
			c-5.2,2.8-10.5,5.4-16,7.6c-11.1,4.4-22.4,7.4-34.5,7.5c-7.1,0.1-14.1-0.5-20.9-2.4c-7.8-2.1-14.9-5.8-21.2-10.9
			c0-0.4-0.2-0.5-0.5-0.5c-0.5-0.5-1-0.9-1.4-1.4c-1.8-2.8-3.5-5.5-5.3-8.3c-0.5-2.2-1.3-4.3-1.5-6.5c-1-8.6,1.8-16.1,7.6-22.4
			c6.7-7.2,15.1-10.9,24.8-12.3c8.7-1.2,17.2-0.1,25.5,2.4c8,2.3,15.8,5.1,23.4,8.4c1.9,0.8,3.3,0.7,4.8-0.5c3.4-2.8,7-5.5,10.5-8.4
			c8.1-6.8,15.8-13.9,23.4-21.2c0.8-0.8,1.5-1.6,2.2-2.5c3.6-2.8,6.7-6.2,9.7-9.6c2.9-2.1,5.2-5,7.6-7.7c0.8-0.7,1.7-1.4,2.5-2.2
			c7.6-7.6,15.1-15.2,23-22.5c6.7-6.2,13.4-12.4,20.3-18.3c14.7-12.6,30.2-24.2,46.8-34.2c11.4-6.9,23.3-12.6,36.1-16.5
			c7.7-2.3,15.5-3.7,23.5-4.4c3.8-0.3,7.6,0.2,11.5,0.6c6.1,0.6,11.9,2.4,17.6,4.6c0.9,0.3,1.8,0.8,2,1.8c-3,0.3-6.1,0.5-9,1
			c-7.5,1.3-14.4,4.1-21,7.7c-7.2,3.9-13.9,8.5-20.2,13.6c-12.3,9.8-23.5,20.6-34.4,31.9c-16.4,17-32.7,34.2-49,51.3
			c-20.1,21.1-40.9,41.4-64.3,58.8c-0.6,0.5-1.3,0.9-1.5,2c3.6,2.4,6.9,5.5,11,7.3c0.7,1.1,1.8,1.8,2.8,2.5c2.4,1.5,4.8,3.1,7.3,4.4
			c8.1,4.5,16.5,7.9,25.8,9c4.7,0.8,9.5,1.7,14.3,1.2c6.1,0.2,12.2,0.4,18.3-1.1c0.8,0,1.6,0,2.4-0.1c12.2-2.2,23.8-5.9,35-11.2
			c21.1-9.9,39.4-23.6,55.6-40.2c16.8-17.2,30.5-36.5,40.1-58.6c1.6-3.8,3.4-7.6,4.2-11.7c2.1-4.6,3-9.4,3.8-14.3
			c1.5-3.7,1.2-7.7,1.8-11.5c0.8-7.5,0.4-15-1.2-22.4c-1-4.5-2.1-9-4.4-13.1c0-0.6-0.1-1.1-0.8-1.1l0,0c0.3-1.6-0.6-2.8-1.7-3.9
			c-0.2-0.5-0.4-1.2-1.2-1c0,0,0,0,0,0c0.2-2-1.4-3.2-2.3-4.5c-7-9.5-16.2-16.2-26.9-21c-22.9-10.2-46.6-12.8-71.1-7.6
			c-22.4,4.8-42.4,14.7-60.4,28.7c-8.9,6.9-16.6,15-22.9,24.3c-3.4,5.1-6.2,10.4-7.9,16.3c-2,6.9-2.1,13.5,2,19.8
			c0.2,0.2,0.2,0.6,0.3,1.1c-0.6,0.4-1.3,0.8-2,1.1c-8.8,3.5-17.4,3.9-25.6-1.6c-4-3.9-6.9-8.5-8.3-14
			C646.5,223.1,646.4,223,646.3,222.9z M593.3,337.2c5.3-1.6,8.2-3.1,10.2-5.5c-6.7-3.1-13.6-5.4-20.8-6.8
			c-4.1-0.8-8.2-0.9-12.4-0.3c-1.8,0.3-3.4,0.8-5,1.6c-3.9,2.2-4.5,5.4-1.2,8.5c2,1.8,4.2,3.4,7.1,3.6c0.4,0.3,0.7,0.6,1.2,0.8
			C579.6,341,586.6,340.4,593.3,337.2z" />
      <path class="st3" d="M1003.3,324.6c4.4,1.8,9.2,2.5,13.7,4c2.1,0.7,4.4,0.6,6.3,2.3c-0.6,0.8-1.2,1.6-1.7,2.4
			c-19.9,24.4-39.8,48.7-59.7,73.1c-2.5,3.1-5.1,6.1-7.6,9.2c-1.2,1.5-2.3,3.1-2.9,4.9c-0.7,2.3,0.1,3.7,2.3,4.5
			c1.1,0.4,2.2,0.5,3.3,0.3c2.7-0.5,5.4-0.9,7.6-2.7c0.7,0,1.2-0.2,1.3-1c0,0,0,0,0,0c1.6,0.5,2.8-0.4,4-1.1c2.2-1.3,4.4-2.6,6.6-4
			c13.1-8.2,24.7-18.2,35.9-28.6c5.5-5.1,10.7-10.5,15.9-15.9c2.8-2.9,5.5-5.7,7.8-9.1c0.8-0.7,1.5-1.5,2.4-2.2
			c1.5-1.2,3.4-0.7,4.2,1.1c0.3,0.7,0.2,1.5,0.3,2.3c-5.9,6.5-11.6,13.2-17.7,19.5c-8.9,9.3-18,18.6-27.7,27.2
			c-7.8,6.9-15.7,13.6-24.1,19.6c-2.1,1.5-4.3,2.7-6,4.7c-2.5,1.4-5.1,2.6-7.6,4.1c-5.5,3.2-11.3,6-17.4,7.8
			c-7.5,2.3-14.8,2.4-21.6-1.9c-4.8-3.9-7.1-9-7.6-15c-0.1-1.1-0.3-2.2-0.4-3.2c0.1-0.6,0.4-1.2,0.4-1.9c0.4-5.2,1.8-10,3.8-14.8
			c0.5-1.2,0.9-2.4,1.4-3.6c0.3-0.3,0.7-0.7,0.3-1c-0.5-0.4-0.7,0.1-0.8,0.5c-1.9,0.6-3.1,2.2-4.5,3.4c-5,4.2-10.2,8.2-15.6,11.7
			c-4.7,3-9.5,5.7-14.9,7.5c-5.7,1.9-11.4,2.9-17.4,1.5c-3.1-0.8-6.1-1.9-8.8-3.6c-0.6-0.4-1.2-1.1-2-0.4l0,0.1
			c0.2-0.4,0.5-0.7,0-1.1c-0.4-0.4-0.8-0.8-1.2-1.2c-4.2-4.4-5.8-9.6-5.8-15.7c0-6.7,1.7-12.9,4.3-19c2.4-5.4,5.3-10.6,8.6-15.4
			c0.7-1,1.8-1.9,1.6-3.4l0,0c0.7-0.1,0.9-0.5,0.9-1.1l-0.1,0.1c0.6-0.1,0.9-0.5,0.9-1.1l-0.1,0.1c1-0.2,1.3-1,1.4-1.9
			c2.7-3.1,5.4-6.3,8.1-9.4c0.7,0,1.2-0.4,1.3-1.1l0,0c0.6,0,1-0.4,1-1l0,0c0.7,0,1-0.3,1-1l-0.1,0c1.1-0.2,1.5-0.7,1.1-1.8
			c0,0,0,0,0,0c1.1,0.5,1.8-0.3,2.5-0.9c4.8-4.2,9.5-8.5,14.3-12.6c6.2-5.3,12.6-10.2,19.6-14.4c4.5-2.7,9.1-5.3,13.6-7.9
			c3.8-1.6,7.7-3.2,11.5-4.7c4.4-1,8.9-1.9,13.3-2.9c3.8,0,7.6,0,11.4,0.1c3.2,0.1,6.3,1,9.3,2.1c3.2,1.1,5.8,3.2,8.1,5.7
			c1.7,3.7,2.4,7.5,1.6,11.5c-0.1,0.7-0.7,1.4-0.1,2.1c1.3-0.2,1.7-1.3,2.5-2.1c1.4-1.5,2.7-3.1,4-4.7c1.2-1.5,2.4-2,4.5-1.4
			C996.8,323.2,999.9,324.5,1003.3,324.6z M971.7,340.9c1.5-1.9,2.7-3.9,3.2-6.3c1.6-1.9,1.7-4.1,1.6-6.3c-0.1-2.4-1.3-3.9-3.5-4.6
			c-2-0.7-4-0.9-6.1-0.5c-4.5,0.8-8.5,2.8-12.3,5.1c-5.6,3.4-10.7,7.6-15.6,11.9c-12.2,10.8-23.5,22.6-34.4,34.6
			c-4.4,4.8-8.5,10-11.9,15.6c-1.7,2.7-3.2,5.5-4.1,8.6c-0.5,1.6-0.7,3.1-0.6,4.7c0.1,2.3,1.4,3.8,3.4,4.9c1.3,0.7,2.7,0.8,4.2,0.5
			c2.1,0.3,4.1-0.2,6.1-1c4-1.6,7.7-3.9,11.3-6.3c8.2-5.6,15.6-12.2,22.8-19c6.1-5.8,12.1-11.9,17.7-18.2
			c5.2-5.8,10.3-11.8,14.9-18.1C969.6,344.8,971.2,343.2,971.7,340.9z" />
      <path class="st4" d="M1573.4,473.7c-3.4-2.1-6.7-4.2-10.7-5.1c-6.9-1.5-13.8-1.5-20.8-0.2c-2,0.4-3.9,1.4-6.1,1.1
			c1.5-2.8,3.8-5.1,5.8-7.6c15.5-19.2,31-38.5,46.6-57.7c1.4-1.7,3-3.3,4.4-5c3,1,6,2.1,9.1,3c3.6,1.2,6.5,3.3,9,6
			c2.1,2.3,3.3,5.3,3.1,8.3c-0.2,2.8-0.8,5.7-2.5,8.1c-2.1,2.8-4,5.7-6.2,8.4c-4.6,5.5-8.8,11.2-13.3,16.8
			c-4.5,5.6-9.1,11-13.5,16.6C1576.4,468.8,1574.4,470.9,1573.4,473.7z" />
      <path class="st4" d="M1017.8,357.4c4.5,0.3,9,0.8,13,3.4c1.5,1,3.2,2.1,5.2,2.2c-2.2,3.3-5,6.2-7.8,9.1
			c-5.2,5.4-10.4,10.8-15.9,15.9c-11.2,10.4-22.8,20.5-35.9,28.6c-2.2,1.4-4.3,2.7-6.6,4c-1.2,0.7-2.5,1.6-4,1.1
			c-0.1-1.1,0.7-1.7,1.3-2.4c15.4-18.8,30.7-37.5,46.1-56.3C1014.7,361,1016.3,359.2,1017.8,357.4z" />
      <path class="st2" d="M1003.3,324.6c-3.4-0.1-6.5-1.4-9.6-2.3c-2.1-0.6-3.3-0.1-4.5,1.4c-1.3,1.6-2.6,3.2-4,4.7
			c-0.7,0.8-1.2,1.9-2.5,2.1c-0.6-0.7,0-1.4,0.1-2.1c0.7-4,0-7.8-1.6-11.5c6.9-0.2,13.4,1.6,19.6,4.5
			C1002.2,322.1,1003.3,322.9,1003.3,324.6z" />
      <path class="st5" d="M965.8,421.5c-0.1,0.8-0.6,1-1.3,1C964.8,422,965.1,421.5,965.8,421.5z" />
      <path class="st6" d="M1543.8,259.3c-0.7-1-2-1-3-1.4c-6.7-2.9-11.1-7.7-13.6-14.6c-3-8.4-6.2-16.7-9.4-25
			c-3.6-9.2-8-18.1-12.3-26.9c-5.9-12-12.3-23.8-19.5-35.1c-1.2-1.9-2.5-3.6-3.8-5.4c-0.5-0.8-0.9-1.7-1.5-2.5
			c-12.1-18.5-25.6-36-40.5-52.2c-27.1-29.5-57.9-54.6-92.6-74.7c-30.9-17.9-63.5-31.4-98-40.5c-14.7-3.9-29.5-6.8-44.6-9
			c-11.2-1.6-22.5-2.9-33.8-3.3c-20.6-0.8-41.2-0.7-61.8,1.5c-10.2,1.1-20.3,2.5-30.3,4.3c-20.6,3.8-40.8,9.2-60.6,16.1
			c-30.3,10.7-58.9,24.7-86,42c-18.8,12-36.5,25.4-53.1,40.2c-6,5.3-12.7,7.9-20.6,7.1c-0.8-0.1-1.6-0.2-2.4-0.2
			c-0.4-0.3-0.7-0.6-1.2-0.8c-4.5-1.4-8.4-3.7-11.5-7.2c-0.5-0.6-1.2-1-1.8-1.6c0.1-1.7-1.5-2.7-2-4.2c-1.1-3.6-2.4-7.1-3.6-10.7
			c-0.4-1.2-0.5-2.5,0.9-3.3c0.7,0.8,1.5,1.7,2.2,2.5c8,8.9,21,10.7,31,4.2c1.7-1.1,3.3-2.5,4.9-3.9c29.3-25.9,61.5-47.4,96.8-64.4
			c31.4-15.1,64.2-26.1,98.4-32.6c14-2.7,28-4.7,42.2-5.8c10.1-0.8,20.1-1.4,30.2-1.5c15-0.1,30,0.8,45,2.4
			c49.3,5.4,96,19.6,140,42.6c29.8,15.6,57.1,34.7,81.9,57.4c40.3,36.7,71.7,79.8,95,129c6.3,13.3,11.8,26.9,16.7,40.8
			c0.6,1.7,1.2,3.3,1.8,4.9c4.3,10.3,15,16.2,26.1,14.4c10.8-1.7,19-10.5,20.1-21.5c0.1-1,0.1-1.9,0.2-2.9c2.3,4.1,3.1,8.6,4.1,13.2
			c2.8,13.5-6.7,26.9-19.6,28.7c-2.9,0-5.8,0-8.7,0C1545,259.4,1544.4,259.4,1543.8,259.3z" />
      <path class="st4" d="M1543.8,259.3c0.6,0.1,1.2,0.2,1.8,0.2c2.9,1.3,5.8,1.3,8.7,0c12.9-1.8,22.5-15.1,19.6-28.7
			c-1-4.5-1.8-9.1-4.1-13.2c-0.2-2.4-0.7-4.7-1.5-7c-3.9-11.1-7.7-22.3-12.8-33c-0.3-0.6-0.3-1.2-0.5-1.8c1.4,0,2.4,0.7,3,2
			c2.9,6.2,6.2,12.2,9,18.5c2.5,5.5,4.7,11.2,7.2,16.7c2,4.5,3.8,9.1,5.4,13.8c2.9,8.4,6.2,16.7,7.8,25.5c0.7,3.6,1.4,7.1,1.4,10.9
			c-0.1,6-2,11.4-5.9,15.8c-5.1,5.6-11.8,7.9-19.4,7.2c-0.6-0.1-1.2-0.3-1.8-0.5c-5.9-2.1-10.7-5.9-14.4-10.8
			c-2.8-3.8-4.8-8.3-6.2-12.9c-0.6-1.9-0.4-2.1,2.1-2.6C1543.5,259.3,1543.7,259.3,1543.8,259.3z" />
      <path class="st4" d="M1346,519.5c-6.4,5.1-13.5,8.9-21.3,11.1c-2.5,0.7-5,0.9-7.4,0c1.1-9,3.5-17.8,6.3-26.4
			c4.1-12.7,8.2-25.4,12.3-38.2c3.6-11.4,4-22.8-0.2-34.2c-0.7-1.8-1.5-3.5-2.2-5.3c6,0.5,11.6-0.9,17.1-3c2.7-1,5.4-2,7.1-4.5
			c0.6-0.1,1.2-0.2,1.8-0.2c1.4,0.2,2.8,0.4,3.9-0.9c12.6-3.2,24.6-7.8,36.2-13.7c11.5-5.9,22.6-12.7,33.3-19.9
			c5.6-3.7,11.1-7.6,16.8-11.1c12.8-8.1,26.5-14.1,41.6-16.2c6-0.8,12.1-0.8,18.1,0.1c9.5,1.4,18.1,5.1,25.7,10.9
			c0.2,0.7,0.9,0.9,1.4,1.2c4.6,3.4,6.2,8.3,6.3,13.8c0,2.6-1.5,4.2-4.2,4.2c-2.8,0-5.7,0.1-8.6-0.4c-3.9-0.7-7.8-1.6-11.8-1.5
			c-3.7,0.1-7.3,0.3-10.9,0.8c-6.4,0.8-12.3,2.9-18.2,5.2c-1.8,0.7-3.8,1.7-4.8,3.7c-0.4-0.3-0.7-0.6-1.1-1
			c-6.1-6.9-13.7-9.7-22.8-7.7c-13.6,3.1-19.3,17.3-16.8,26.3c0.5,1.7,0.9,3.4,1.3,5.1c-0.4,0.8-1.1,1.1-1.9,1.3
			c-7.2,2.2-13.4,6.7-20,10.1c-8.1,4.1-16,8.4-24.6,11.4c-6.8,2.4-13.7,4.4-20.6,6c-5.2,1.2-10,3.2-14.7,5.6c-2.6,1.4-4.7,3.3-6,6
			c-1.3,2.9-2.2,6-2.5,9.2c-0.4,5.4-0.1,10.8-0.9,16.2c-0.5,3.4-0.8,6.9-1.6,10.3c-1.6,6.5-3.5,12.9-5.7,19.2
			c-0.5,1.4-1,2.7-1.3,4.1C1344.9,517.9,1345,518.9,1346,519.5z" />
      <path class="st4"
        d="M1299.5,423.5c2.6,8.4,2.4,16.8-0.9,25c-0.6,0-1.3-0.1-1.9,0c-3.1,0.6-6.5,0.7-8.9,3.1
			c-3.9,4-8.3,7.5-11.5,12.2c-1.4,2.1-3.2,4-4.8,5.9c-3.7,4.4-7.6,8.6-11.1,13.1c-4.4,5.7-9.6,10.7-14.4,16
			c-5.2,5.8-11.5,12-20.7,19.9c-2.7,2.3-5.3,4.6-7.9,6.9c-4.6,3.9-10.1,6.7-14.6,10.7c-0.3,0.3-0.8,0.5-1.3,0.7
			c-3.3,1.9-6.7,3.6-9.8,5.8c-6.2,4.3-13.3,6.8-20.3,9.4c-5.1,1.9-10.2,3.3-15.7,4.1c-4.1,0.6-8.3,0.4-12.3,1.5
			c-1,0.3-2.3,0.3-3.3-0.1c-2.8-1-5.7-0.7-8.5-0.9c-0.9,0-1.9-0.3-2.8-0.5c-5.9-1.2-11.6-3.3-17.2-5.6c-6.9-2.9-12.4-7.8-18-12.4
			c-0.2-0.2-0.5-0.4-0.6-0.7c-0.9-1.8-2.3-3-3.6-4.4c-4-4.5-6.6-9.7-9-15.1c-0.5-1.2-0.5-2.5,0.7-3.5c1.3,0.9,2.6,1.8,4,2.7
			c10.2,6.6,21.4,10.7,33.6,11.8c13.1,1.2,25.8-1.1,38-5.9c15.8-6.2,29.8-15.2,43-25.8c18.5-14.9,34.7-32.1,49.9-50.3
			c8-9.6,15.7-19.4,22.8-29.6c1.6-2.4,3.5-3,6.1-2.4c6.4,1.4,12.7,3.3,18.1,7.2C1297.4,422.9,1298.2,423.8,1299.5,423.5z" />
      <path class="st4" d="M1543.3,593.1c0.3,1.9,0.5,3.8,0.9,5.6c0.8,3.6,2.2,7,4.3,10c0,1.6,0.3,3,1.8,3.9c0.4,0.7,0.8,1.4,1.2,2.1
			c3.6,7.6,9.8,12,17.8,13.9c7.6,1.9,15.2,1.8,22.8,0.7c8.4-1.3,16.4-4.1,24-7.8c16.8-8.1,30.8-19.9,42.9-33.9
			c6.2-7.1,11.7-14.8,16.6-22.8c1.5-2.4,1.6-2.5,4.2-1.8c6.4,1.8,12.9,2,19.4,0.7c1.9-0.4,3.8-0.7,5.6-1.1c1.9,0.1,3.8,0.1,5.2,1.9
			c2.3,2.9,5.6,4.3,8.8,5.6c2.4,0.9,4.5,2.4,6.7,3.6c2,1,2.9,2.9,3.3,5.1c0.8,4.3-0.7,7.6-4.4,9.7c-1.6,0.9-3.3,1.9-5.3,2.2
			c-3.1,0.5-6.2,1.4-9.3,1.9c-4.3,0.7-8.3,2.1-12.4,3.3c-1.5,0.5-3,1.3-4.2,2.2c-4.8,3.7-9.4,7.6-12.9,12.6c-1.8,2.6-3.9,5-6.2,7.3
			c-5.3,5.1-10,10.8-16,15.2c-5.4,4-10.3,8.4-16.2,11.7c-10.1,5.7-20.4,10.4-31.9,12.3c-5.9,1-11.9,1.2-17.6,0.5
			c-9.7-1.2-17.6-6.3-23.6-14c-2.3-2.9-4.7-5.6-7.7-7.8c-5.5-3.9-11.8-3.5-18-2.5c-3.1,0.5-6.1,1.7-9.1,3c-3.4,1.5-7.1,1.6-10.7,2.2
			c-0.9,0.2-1.9,0-2.8-0.2c-3.9-0.8-7.7-2-10.8-4.7c-2.5-2.2-5.2-4.3-7-7.2c-2.6-4.2-4.4-8.8-5.8-13.6c-0.3-0.9,0.1-1.5,0.8-2.1
			c0.3,0,0.6,0.1,0.9,0.1c3.6,1.6,7.1,1.4,10.6,0c0.8-0.2,1.6-0.3,2.3-0.5c6.8-1.9,13-5.1,19-8.9
			C1534.8,598.7,1539.1,595.9,1543.3,593.1z" />
      <path class="st4" d="M1482.4,592.9c-0.4,1.4-1.7,1.9-2.9,2.3c-5.9,2-10.5,5.6-14.3,10.7c-3.9,5.2-9,8.9-15.7,10.2
			c-2.1,0.4-4.2,0.7-6.2,0.2c-3.4-0.8-6.8-1.5-10.1-2.7c-6-2.1-11.5-5.2-17.5-7.4c-3.6-1.3-7.2-2.4-11.1-2.2c-1.9,0.1-3.8-0.1-5.7,0
			c-5.2,0.4-10.1-0.7-15.1-2c-1.4-0.4-2.7-1-3.8-1.9c-3.6-3.1-7.5-5.9-11.1-9c-5.3-4.4-11.4-6.6-18.6-4.8c-4.5,1.1-8.7,2.9-13,4.4
			c-4.3,1.5-8.4,3.9-13.2,3.7c-1.5,0-3.1,0.7-4.7,0.8c-5.8,0.6-11.5-0.3-16.9-2.2c-4.9-1.8-9.2-5.1-12.6-9.2
			c-3.8-4.6-6.2-10-7.9-15.7c-0.5-1.6-0.4-1.6,1.6-2.7c12.2,4,24.1,2.7,35.8-2.1c1.6-0.7,3.2-1.4,4.8-2.2c6.4-3,12.2-6.8,18-10.7
			c1.4-1,2.7-2.3,4.6-2.4c0.3,0.4,0.7,0.7,0.7,1.1c0.2,3.6,2.2,6.4,4.1,9.1c0.1,0.7,0.1,1.4,1.1,1.5c0,0-0.1-0.1-0.1-0.1
			c-0.4,1.4-0.2,1.6,1,2c0,0,0-0.1,0-0.1c0,0.5-0.3,1-0.1,1.3c2.2,4.7,5.5,8.6,10.2,11c6,3,12.3,3.1,18.7,1.6
			c4.4-1,8.5-2.7,12.5-4.7c1.4-0.7,2.7-1.7,4.4-1.8c0,0.8,0.1,1.5,0.1,2.3c-0.1,0.1-0.2,0.3-0.2,0.4c-0.1,0.3,0.1,0.5,0.5,0.6
			c0,0-0.1-0.1-0.1-0.1c0.8,3.5,3.1,6.2,4.8,9.3c0.6,1.1,1.7,1.3,2.8,1.6c8.9,2.4,17.9,4.8,26.8,7.3c2.3,0.6,3.8-0.1,5.3-1.9
			c9.4-11.9,18.9-23.7,28.5-35.5c3.4-4.2,6.5-8.7,10.4-12.5c0.2,5.4-0.1,10.8-0.5,16.2c-0.7,8.7-1.1,17.4,0.5,26.1
			C1479.2,586.4,1480.9,589.6,1482.4,592.9z" />
      <path class="st4" d="M1224.1,362.7c-1.3-1-2.9-1.2-4.4-1.6c-2.6-0.7-5.3-1.2-7.2-3.4c0.4-5,1.9-9.7,4-14.2
			c2.2-4.6,4.9-8.9,7.8-13.1c9.4-13.6,21.9-23.4,37.1-29.8c0.8,0.1,1.5-0.1,2-0.9c0.3-0.1,0.5-0.2,0.8-0.2c0.6,0.1,0.9-0.1,1.2-0.6
			c0.3-0.1,0.6-0.2,0.9-0.2c0.8,1.1,1.9,1,3,0.7c7.8-1.6,15.5-3,23.5-2.7c1.4,0.1,2.8-0.1,4.2-0.4c4.1-1,8.3-0.8,12.3-0.2
			c2.5,0.4,5,0.8,7.5,0.6c4.8-0.4,9.4,1,14.2,1.2c3.1,0.1,6.2,1.2,9.3,1.7c1.1,0.2,1.6,0.9,1.9,1.8c-0.6,0.3-1.1,0.7-1.7,0.9
			c-13.2,5-25.3,12-36.9,20c-1,0.7-1.9,1.8-3.4,1.3c-1.1,0-2.3-0.2-3.3,0.1c-7.6,1.9-15,4.6-21.9,8c-8,4-15.3,9.1-22,15.1
			c-1.5,1.4-3.1,2.8-4.2,4.6c-0.7,1.1-1.6,2-2.4,2.9c-4.7,5.1-8.2,10.9-10.3,17.6c-0.7,2.2-0.7,4.4-0.6,6.6c0,1.2,0.9,1.6,1.9,1.8
			c-0.2,0.3-0.3,0.6-0.5,0.8c-7.9,8.2-15.8,16.5-23.7,24.7c-0.5,0.6-1.2,1-1.9,1.4c-2.8-2-5.6-4-8.1-6.5c-0.3-0.3-0.9-0.4-1.2-0.7
			c-0.6-0.5-1.2-1-1.7-1.7c-3-4.1-5.9-8.2-8-12.9c-0.8-1.8-1.3-3.6-1.1-5.5c4,1.7,8.1,3,12.4,3.2c9.2,0.5,17.3-2.5,24.6-7.7
			c0.9-0.6,1.9-1.2,2.2-2.5c-1.6-2.9-3.3-5.8-5-8.7C1225.3,363.7,1224.7,363.2,1224.1,362.7z" />
      <path class="st4" d="M1414.6,337.2c-2.4,3.3-5.8,5.4-8.8,8c-3.7,3.2-7.2,6.7-11.4,9.3c-2.3-0.4-4.4,0.5-6.3,1.6
			c-3.9,2.4-7.9,4.7-11.8,7.1c-6.5,4.2-12.4,9.3-18.7,13.8c-3.5,2.5-6.2,5.9-9.9,8.2c-1.3,0.8-2.6,2-2.4,3.9c-3.6,2.8-7.9,4-12,5.7
			c-6.4,2.6-13.1,3.8-20,4.6c-1.4,0.2-2.8,0.1-4.2-0.5c-4.1-1.8-8.5-2.8-12.9-3.2c-0.8-0.1-1.6-0.3-2.1-0.9c0.7-1,1.4-2.1,2.2-3.1
			c10.7-12.5,22-24.5,34.3-35.4c10.3-9.1,21.1-17.6,32.8-24.9c8.8-5.5,17.9-10.4,28-13.4c3.5-0.6,6.4,0.7,9.1,2.8
			c2.9,2.2,5.9,4.2,8.6,6.6c2.4,2,4.7,4.2,4.6,7.8C1413.6,335.7,1414.3,336.5,1414.6,337.2z" />
      <path class="st6" d="M1081.1,514.6c-1.9-2-3.9-4.1-5.8-6.1c-2.8-3-5.2-6.3-7.1-10c0.4,0,0.9-0.1,1.3-0.1c2.2,1.9,4.2,3.9,6.5,5.6
			c8.5,6.6,18.2,10.5,28.7,12.7c11.8,2.5,23.5,1.6,35.1-1.5c12.3-3.3,23.6-8.8,34.3-15.6c14.4-9.1,27.4-20,39.5-31.9
			c16.6-16.2,31.5-34,45.5-52.6c2.5-3.3,5-6.7,7.4-10.1c0.9-1.3,2-2,3.6-1.7c6.6,1.2,13.1,3,18.8,6.8c4.9,3.3,8.7,7.5,10.5,13.3
			c-1.3,0.2-2.1-0.6-3-1.3c-5.4-3.9-11.7-5.8-18.1-7.2c-2.6-0.6-4.4,0-6.1,2.4c-7.1,10.2-14.9,20-22.8,29.6
			c-15.1,18.3-31.4,35.4-49.9,50.3c-13.1,10.6-27.2,19.6-43,25.8c-12.2,4.8-24.9,7.1-38,5.9c-12.1-1.1-23.3-5.1-33.6-11.8
			C1083.8,516.4,1082.5,515.5,1081.1,514.6z" />
      <path class="st6" d="M1535.1,367.8c-7.7-5.8-16.2-9.5-25.7-10.9c-6.1-0.9-12.1-0.9-18.1-0.1c-15.2,2.1-28.8,8.1-41.6,16.2
			c-5.7,3.6-11.2,7.4-16.8,11.1c-10.8,7.2-21.8,14-33.3,19.9c-11.6,5.9-23.6,10.5-36.2,13.7c-1.4-0.1-2.8-0.4-3.9,0.9
			c-0.6,0.1-1.2,0.2-1.8,0.2c-0.9,0-1.9-0.3-2.8-0.1c-5.8,1.3-11.7,0.8-17.5,0.9c-2.9,0-5.7-0.1-8.5-0.9c-2.1-3.5-4-7.1-7.3-10.8
			c2.5,0.1,4,0.1,5.6,0.3c12.1,1.4,23.9-0.3,35.5-3.5c13.3-3.6,25.8-9.4,37.9-16c12.1-6.6,23.5-14.2,34.9-22
			c6.7-4.6,13.7-8.9,21-12.4c9.9-4.7,20.2-8.1,31.1-9.2c13.5-1.4,26.1,1.3,37.5,8.7c1.2,0.8,2.4,1.6,3.6,2.3
			c0.4,0.2,0.7-0.4,0.8-0.9c0.4,0.2,1.1,0.2,1.3,0.5C1532.9,359.4,1535.6,363.1,1535.1,367.8z" />
      <path class="st4" d="M1505.4,436.8c-1.6,3.4-4.3,5.9-6.6,8.8c-9.8,12.4-19.8,24.7-29.7,37c-1.1,1.4-2.3,2.7-3.5,4
			c-7.1,7.6-14.4,15-22.1,22c-9.7,8.9-19.8,17.2-30.9,24.3c-3.4,2.1-6.8,4.2-10.4,5.9c-0.9,0.4-1.7,0.9-2.7,0.8
			c2.6-3.3,5-6.6,7.7-9.8c17-20.6,34-41.1,51-61.7c2.3-2.8,4.6-5.7,6.9-8.6c0.7-0.8,0.7-1.7,0.1-2.6c-1.4-2.5-2.8-5-4.1-7.5
			c0.7-0.5,0.9-1.3,0.9-2.1c0-1.3,0-2.5,0-3.8c0.1-2.2,0.1-2.2,2.8-2.8c0.6,0.1,1.3,0.2,1.9,0.3c8.3,1.8,15.3-0.5,21.3-6.4
			c2.9-2.9,4.6-6.4,5.8-10.2c1.1-0.1,2.2-0.1,3.1,0.7c2.1,2,4.2,3.9,5.4,6.6C1503.3,433.6,1503.8,435.5,1505.4,436.8z" />
      <path class="st6" d="M1718.5,556c-4.3,2.7-9,4.4-13.5,6.6c-1.9,0.4-3.7,0.8-5.6,1.1c-6.5,1.3-13,1.1-19.4-0.7
			c-2.6-0.7-2.8-0.6-4.2,1.8c-4.9,8.1-10.4,15.7-16.6,22.8c-12.1,14-26.1,25.8-42.9,33.9c-7.7,3.7-15.6,6.6-24,7.8
			c-7.6,1.1-15.3,1.2-22.8-0.7c-8-2-14.2-6.3-17.8-13.9c-0.3-0.7-0.8-1.4-1.2-2.1c0.3-0.4,0.6-0.7,1-1.1c5.8,4.4,12.5,6.3,19.6,6.8
			c11.9,1,23.2-1.6,34.1-6.2c14.6-6.2,27.2-15.4,38.6-26.4c9.5-9.2,17.5-19.5,24.6-30.6c0.6-0.9,1.2-1.9,1.7-2.9
			c0.6-1.2,1.6-1.5,2.8-1.1c4,1.2,8.1,1.6,12.3,1.9c1.2,1.2,2.8,1.4,4.3,1.9c4.5,1.4,9.1,1.2,13.7,0.8c4.5-0.1,8.3-1.9,11.7-4.6
			c0.3,0,0.6,0,0.9,0C1719.5,551.6,1719.8,552.2,1718.5,556z" />
      <path class="st6"
        d="M1264.3,299.5c-0.3,0.1-0.5,0.2-0.8,0.2c-0.8-0.1-1.5,0.1-2,0.9c-15.2,6.4-27.7,16.1-37.1,29.8
			c-2.9,4.2-5.6,8.5-7.8,13.1c-2.2,4.5-3.6,9.2-4,14.2c-5-2.7-6.4-7.3-6.2-12.5c0.2-4.2,1.5-8.2,3.3-11.9c7.1-14.9,17-27.3,31-36.4
			c10.7-7,22.4-11.5,34.8-14.4c13.7-3.2,27.5-3.8,41.5-2.7c12,1,23.7,3.6,34.7,8.5c4.7,2.1,9.1,4.5,13.1,7.7c0,0.3,0,0.5,0,0.6
			c-0.1,0.1-0.2,0.2-0.4,0.2c-3.2,0.5-6.3,0.9-9.5,1.3c-13.6-5.5-27.9-7.3-42.5-7.8c-5.9-0.2-11.8,0.3-17.6,1
			c-6.1,0.8-12.3,1.9-18.2,3.7c-3.5,1-7.1,1.6-10.2,3.8c-0.3,0.1-0.6,0.1-0.9,0.2C1264.9,298.8,1264.5,299,1264.3,299.5z" />
      <path class="st4"
        d="M1660.8,521.5c-0.6,3.5-2,6.7-3.5,9.9c-5.5,11.8-12.7,22.5-20.5,32.8c-6.9,9.2-14.3,17.9-22.7,25.8
			c-3.3,3.1-6.8,5.8-10.7,8c-2.1,1.2-4.3,1.9-6.6,2.6c-2,0.6-3.8,0.5-5.5-0.6c0.3-4.2,1.3-8.2,2.7-12.1c1.9-5.1,4.3-10,7-14.6
			c10.2-17.1,22.9-32.2,37.4-45.8c1.3-1.2,2.8-2.1,4.2-3.2c1.1,0.2,2.2-0.2,3.3-0.4C1650.8,522.7,1655.7,521.2,1660.8,521.5z" />
      <path class="st6" d="M1388.2,317.8c-10,3-19.1,7.9-28,13.4c-11.7,7.3-22.5,15.8-32.8,24.9c-12.4,10.9-23.6,22.9-34.3,35.4
			c-0.8,1-1.5,2.1-2.2,3.1c-4.8,0.1-9.6,0.3-14.3,0.4c-0.6,0-1-0.8-0.7-1.4c0.3-0.5,0.7-1.1,1.1-1.6c18.3-23.1,38.5-44.4,62.2-62.1
			c10.4-7.8,21.3-14.7,33.2-19.9c5.7-2.5,11.5-4.6,17.7-5.9c2.8-0.6,5.7-0.8,8.6-0.7c1.1,0.5,1.7,1.3,2.2,2.3
			c0.5,0.9,0.8,2.1,1.8,2.6c0.8,1.8,2.2,3.4,2.2,5.9c-2.6-0.3-4.9,0.5-7.2,0.9C1394.5,315.8,1391.1,316,1388.2,317.8z" />
      <path class="st4" d="M1585.5,500.4c1.9-0.1,3.4,0.4,4.7,1.8c2.3,2.6,5.2,4.7,7,7.8c0.3,0.5,1,0.8,1.5,1.2
			c-2.4,1.9-4.7,3.9-7.1,5.7c-12.9,10.2-24,22-33.3,35.6c-1.3,1.9-2.8,3.4-4.6,4.8c-6.7,5.2-13.5,10.2-21.2,13.9
			c-2.3,1.1-4.7,2-7.2,2.5c-2.6,0.6-5.1,0.5-7.3-1.1c0.5-0.7,0.6-1.4,0.5-2.3c-0.2-3.2-0.5-6.4-0.6-9.6c-0.2-6.4-1.2-12.7-3.8-18.7
			c-0.3-0.7-0.7-1.4-0.4-2.3c0.4-0.1,0.9-0.2,1.4-0.2c1,0,1.9,0.1,2.9,0.2c9.1,1.4,18.2,0.6,27.1-1.4c9.1-2,17.7-5.6,25-11.6
			C1578.5,520,1584.7,511.7,1585.5,500.4z" />
      <path class="st6" d="M1642.6,524.3c-1.4,1.1-2.9,2-4.2,3.2c-14.4,13.7-27.2,28.7-37.4,45.8c-2.8,4.7-5.2,9.5-7,14.6
			c-1.4,3.9-2.4,7.9-2.7,12.1c-4.3-1.1-5.6-4.4-6.1-8.2c-0.3-2.4-0.1-4.8,0.3-7.1c1.1-5.7,3.2-11,5.7-16.2c2.7-5.6,5.9-10.9,9.5-16
			c8.4-12.1,17.8-23.3,28.3-33.7c3.9-3.8,7.9-7.4,12.5-10.4c2.8-1.9,5.7-3.5,8.9-4.5c2.2-0.7,4.4-0.8,6.6-0.6
			c2.3,0.2,3.8,1.5,4.7,3.5c1.1,2.6,1.3,5.2,0.6,8C1654.4,514.9,1648,518.5,1642.6,524.3z" />
      <path class="st6" d="M1459.2,448.2c0.7,0.4,1.4,0.8,2.1,1.2c1.4,2.5,2.7,5.1,4.1,7.5c0.5,1,0.5,1.8-0.1,2.6
			c-2.3,2.9-4.6,5.7-6.9,8.6c-17,20.6-34,41.1-51,61.7c-2.6,3.2-5.1,6.5-7.7,9.8c-2.8,1.7-5.9,2.4-9.2,2.1c-1-0.1-1.9-0.2-2.7-0.9
			c-0.9-0.8-1.5-1.7-1.1-2.9c0.4-1.2,0.9-2.4,1.6-3.4c1-1.6,2.2-3.1,3.4-4.6c21.9-26.7,43.9-53.3,65.8-79.9
			C1458.1,449.3,1458.6,448.8,1459.2,448.2z" />
      <path class="st6" d="M1585.5,500.4c-0.9,11.3-7,19.6-15.4,26.5c-7.3,6-15.9,9.6-25,11.6c-8.9,2-18,2.8-27.1,1.4
			c-0.9-0.1-1.9-0.2-2.9-0.2c-0.5,0-0.9,0.1-1.4,0.2c-0.4,0.9,0.1,1.6,0.4,2.3c2.6,6,3.6,12.2,3.8,18.7c0.1,3.2,0.4,6.4,0.6,9.6
			c0.1,0.8,0,1.6-0.5,2.3c-3-1.5-4.2-4.2-4.9-7.3c-0.8-3.4-1-7-1-10.5c-0.1-5.9-0.5-11.8-1.9-17.6c-0.7-2.9-1.9-5.7-2.8-8.6
			c1.3-0.9,2.5-0.2,3.7-0.1c13.7,1.4,27.1,0.1,39.9-5.4c8.7-3.7,16.2-9,21.7-16.8c4.8-6.7,7.5-14.1,6.3-22.5
			c3.8,3.2,5.4,7.5,6.1,12.3C1585.3,497.6,1585,499.1,1585.5,500.4z" />
      <path class="st6" d="M1478.5,540.5c-3.9,3.8-7,8.3-10.4,12.5c-9.6,11.8-19.1,23.6-28.5,35.5c-1.5,1.9-3,2.6-5.3,1.9
			c-8.9-2.5-17.9-4.9-26.8-7.3c-1.1-0.3-2.2-0.5-2.8-1.6c-1.7-3-4-5.7-4.8-9.3c1.6-1,3.1,0,4.5,0.4c7.4,1.9,14.7,4.1,22.1,5.9
			c5.4,1.3,4,2.1,7.5-2.3c12.5-15.5,25-31.1,37.5-46.6c0.5-0.6,1-1.2,1.5-1.9c1.7-2.3,2.9-2,4.2,0.5
			C1479,532.2,1479.3,536.3,1478.5,540.5z" />
      <path class="st6" d="M1346.9,548.1c-1.9,0.2-3.1,1.5-4.6,2.4c-5.8,3.9-11.7,7.7-18,10.7c-1.6,0.7-3.2,1.5-4.8,2.2
			c-11.7,4.8-23.6,6.1-35.8,2.1c-0.6-0.4-1.2-0.9-1.9-1.3c-3.4-1.8-6.5-3.8-8.6-7.2c-0.5-0.8-1.3-1.3-2-2c-0.5-1-1-2-1.5-3
			c-0.4-0.9,0-1.5,0.7-1.9c4.7,3,9.8,5.2,15.4,6.1c6.8,1.1,13.4,0.1,19.9-1.6c7.4-2,14.3-5.4,20.9-9.4c7.4-4.4,14.3-9.6,21-15
			c1.3-1.1,2.4-2.6,4.2-3l-0.1-0.1c0.5,0.6,0.3,1.2,0,1.8C1348.7,534.9,1347.4,541.4,1346.9,548.1z" />
      <path class="st6" d="M1333.4,426.4c0.7,1.8,1.5,3.5,2.2,5.3c4.2,11.4,3.8,22.8,0.2,34.2c-4,12.7-8.2,25.5-12.3,38.2
			c-2.8,8.6-5.2,17.4-6.3,26.4c-3.8-1-5.4-3.7-5.9-7.3c-0.5-3.8-0.1-7.6,0.6-11.4c1.8-9.2,4.8-18.2,7.6-27.1c3-9.4,6-18.8,9.1-28.2
			c3.2-9.6,4.3-19.2,2.5-29.2c-0.1-0.6-0.2-1.2,0.2-1.8C1332.1,425.8,1332.7,426.1,1333.4,426.4z" />
      <path class="st6" d="M1399.4,569.1c-1.7,0-3,1.1-4.4,1.8c-4,2-8.2,3.7-12.5,4.7c-6.4,1.5-12.7,1.5-18.7-1.6
			c-4.8-2.4-8-6.2-10.2-11c-0.2-0.4,0.1-0.9,0.1-1.3c0.2-0.2,0.5-0.6,0.6-0.6c0.7,0.3,1.5,0.6,2.2,1c6.3,3.6,13,4.1,19.9,2.2
			c5.9-1.6,11.4-4.1,16.7-7c8.5-4.7,16.4-10.4,24.1-16.4c2.1-1.7,4.2-3.4,6.3-5.1c0.9-0.7,1.7-1.4,2.6-2.1c0.3-0.2,0.9-0.3,1.3-0.1
			c0.5,0.2,0.4,0.8,0.2,1.2c-0.2,0.4-0.5,0.8-0.8,1.2c-8,10-15.9,20-23.9,29.9c-0.7,0.9-1.6,1.6-2.3,2.4c-0.6,0.1-1.1,0.3-1.1,1
			L1399.4,569.1z" />
      <path class="st6" d="M1497.7,610.7c-0.4-0.8-1.3-0.8-2-1.2c-5.7-2.9-9.1-7.6-10.5-13.8c6.1,4.5,12.8,5.3,20,3.3
			c2.3-0.7,4.5-1.5,6.7-2.3c3.7-1.5,7.2-3.4,10.6-5.4c6.8-4.1,13.2-8.9,19.4-13.9c1.1-0.9,2.3-1.7,3.4-2.5c0.3,0.3,0.6,0.5,0.9,0.8
			c-1.6,5.7-2.6,11.5-2.9,17.5c-4.3,2.8-8.5,5.6-12.8,8.4c-5.9,3.8-12.2,6.9-19,8.9c-0.8,0.2-1.6,0.3-2.3,0.5c-3.5,0-7.1,0-10.6,0
			C1498.3,610.8,1498,610.7,1497.7,610.7z" />
      <path class="st6" d="M1492.9,522.5c-4.4,0.2-8.5-1.4-12.6-2.1c-0.7-1.3,0.3-1.8,0.8-2.5c3.1-3.9,6.1-7.8,9.3-11.6
			c9.2-10.6,20.8-16.7,34.8-18c2.1-0.2,4.1-0.1,6.2,0.3c5.7,0.9,8,3.8,7.9,9.5c0,0.6-0.2,1.2-0.4,1.9c-2.5-0.6-5.1-0.7-7.6-0.4
			c-6.2,0.6-12.2,2.3-17.8,5C1505,508.6,1498.2,514.7,1492.9,522.5z" />
      <path class="st4"
        d="M1492.9,522.5c5.3-7.8,12.1-13.8,20.7-17.9c5.6-2.7,11.6-4.4,17.8-5c2.5-0.2,5.1-0.2,7.6,0.4
			c-0.1,3.6-2,6.3-4.1,8.9c-5.3,6.4-12.4,10-20.3,12c-6,1.5-12.2,2.4-18.5,2.3C1494.9,523.2,1493.8,523.3,1492.9,522.5z" />
      <path class="st4" d="M1136.8,471.5c-5.4,3.8-11.6,5.6-18,6.9c-8,1.7-15.4,0.1-22.5-3.6c-1.8-1-3.5-2.1-4.8-3.8
			c0.3-1.1,0.6-2.3,0.8-3.4c0.6-0.1,1.3-0.2,1.8-0.5c5.7-3.6,12-4.7,18.6-5.2c3.9-0.3,7.6,0.5,11.2,1.7c1.6,0.5,3.2,1.5,5.1,0.9
			c0.2,0.1,0.5,0.3,0.7,0.4c0.2,0.5,0.5,0.8,1,0.8c1.6,1.4,3.2,2.8,4.7,4.1C1136.1,470.5,1136.4,471,1136.8,471.5z" />
      <path class="st6" d="M1129.9,465c-0.2-0.2-0.5-0.3-0.7-0.4c-4.8-4.8-10.6-7.5-17.1-9c-3.5-0.8-7-0.6-10.3,0.9
			c-4.9,2.2-8.6,5.4-9.3,11.1c-0.3,1.1-0.6,2.3-0.8,3.4c-2.9-2.2-4.7-5.2-5.7-8.6c-2.4-8.8,5-16.2,10.9-17.7
			c4.2-1.1,8.2-0.6,12.2,0.7c6.4,2,11.7,5.7,16.7,10c1.2,1,2.3,2.1,3.9,3.4c0.8-2.4,0.1-4.4,0.1-6.3c1,0.2,1.7,0.9,2.1,1.9
			c2.1,3.7,3.6,7.6,4.4,11.8c0.3,1.4,0.5,2.8-0.7,3.9c-1.6-1.4-3.2-2.8-4.7-4.1C1130.8,465.3,1130.5,465,1129.9,465z" />
      <path class="st6" d="M1191.4,380c-1.6-1.2-3.2-2.4-4.9-3.6c-3.1-2.2-5.5-5.1-7.5-8.4c-0.9-1.4-1.4-2.8-1.1-4.5
			c3.7,3.1,7.6,5.7,12.3,7c10.2,2.8,19.8,1,28.7-4.5c1.8-1.1,3.4-2.3,5.1-3.5c0.5,0.6,1.2,1,1.6,1.7c1.7,2.9,3.3,5.8,5,8.7
			c-0.3,1.2-1.3,1.8-2.2,2.5c-7.4,5.3-15.4,8.2-24.6,7.7C1199.5,383,1195.4,381.7,1191.4,380z" />
      <path class="st4" d="M1266.3,298.7c3.1-2.1,6.7-2.7,10.2-3.8c5.9-1.8,12.1-2.9,18.2-3.7c5.8-0.7,11.8-1.2,17.6-1
			c14.5,0.5,28.8,2.4,42.5,7.8c-4.1,1.1-8.2,2.3-12.4,3.4c-0.3-0.9-0.8-1.6-1.9-1.8c-3.1-0.6-6.2-1.6-9.3-1.7
			c-4.8-0.2-9.4-1.6-14.2-1.2c-2.5,0.2-5-0.2-7.5-0.6c-4.1-0.6-8.3-0.7-12.3,0.2c-1.4,0.3-2.8,0.5-4.2,0.4c-8-0.3-15.8,1.1-23.5,2.7
			C1268.2,299.6,1267.1,299.7,1266.3,298.7z" />
      <path class="st6" d="M1376,494.3c-0.2-4.3-0.6-8.5,0.6-12.8c0.5-1.6,0.1-3.5,0.2-5.2c0.1-3.1,1.4-5.5,4.2-6.9
			c1.7-0.8,3.4-1.4,5.3-1.9c4.5-1,8.8-2.5,13.2-3.8c0.8-0.2,1.5-0.6,2.3-0.7c1.2-0.2,1.6,0.7,1.8,1.7c-7.1,8.8-14.5,17.3-22.6,25.1
			C1379.4,491.4,1378,493.2,1376,494.3z" />
      <path class="st4" d="M1342.2,389c-0.1-1.9,1.1-3,2.4-3.9c3.7-2.3,6.3-5.7,9.9-8.2c6.3-4.5,12.2-9.6,18.7-13.8
			c3.9-2.5,7.8-4.8,11.8-7.1c1.9-1.2,4-2,6.3-1.6c-5,4.7-10.5,8.8-15.9,13c-9.2,7.2-18.7,13.8-28.9,19.5
			C1345.1,387.7,1343.6,388.3,1342.2,389z" />
      <path class="st6" d="M1684.7,515.6c0.1,0.6,0.1,1.3,0.4,1.8c2.5,4.8,3,9.9,2.7,15.2c-0.1,0.8,0.1,1.6,0.2,2.4
			c-0.3,3-1.3,5.8-2.2,8.7c-1.8,0.1-3.5-0.5-5.1-1.1c-5.3-2-4.4-1.8-2.7-5.9c3.2-7.7,4.7-15.6,3.8-23.9
			C1683.2,513.3,1683.3,515.2,1684.7,515.6z" />
      <path class="st2" d="M1429.6,438.8c0-1,0.4-1.9,1.3-2.4c3.3-2,6.8-3.7,10.6-3.7c3,0,6,0.8,7.5,4c1.2,2.6,3,4.9,2.6,8
			c-5.8-1-11.3-2.8-17-4.2C1432.9,440,1431.2,439.3,1429.6,438.8z" />
      <path class="st4" d="M1333.4,426.4c-0.6-0.3-1.3-0.6-1.9-0.9c0,0,0.1,0,0.1,0c0.1-0.9-0.2-1.6-1.1-2c-1-1.4-1.2-3.1-1.7-4.7
			c2.8,0.8,5.6,0.9,8.5,0.9c5.9-0.1,11.7,0.4,17.5-0.9c0.9-0.2,1.9,0,2.8,0.1c-1.7,2.5-4.4,3.5-7.1,4.5
			C1345,425.5,1339.3,426.9,1333.4,426.4z" />
      <path class="st4" d="M1135.7,469.9c1.2-1.1,0.9-2.5,0.7-3.9c-0.8-4.2-2.3-8.1-4.4-11.8c3.5-0.3,6,1.7,8.6,3.4
			c2.4,1.6,4.4,3.7,6.7,5.4c0.6,0.5,1.5,0.6,2.2,0.9c-3.7,3.3-8.1,5.5-12.6,7.5C1136.4,471,1136.1,470.5,1135.7,469.9z" />
      <path class="st4" d="M1642.6,524.3c5.3-5.8,11.7-9.4,19.7-9.7c0,2.4-0.6,4.7-1.5,6.9c-5.2-0.3-10,1.2-14.9,2.3
			C1644.8,524.1,1643.8,524.5,1642.6,524.3z" />
      <path class="st4" d="M1714.8,551.2c-3.4,2.7-7.3,4.5-11.7,4.6c0.1-1.3,0.3-2.5-0.4-3.7c-0.6-1,0.1-1.8,0.4-2.7
			c3.2-1.7,6.4-3.5,9.6-5.2C1712.5,546.8,1714.4,548.8,1714.8,551.2z" />
      <path class="st4" d="M1703,549.5c-0.3,0.9-0.9,1.7-0.4,2.7c0.7,1.2,0.5,2.4,0.4,3.7c-4.6,0.4-9.2,0.5-13.7-0.8
			c-1.5-0.5-3.1-0.7-4.3-1.9C1691.3,552.9,1697.2,551.4,1703,549.5z" />
      <path class="st4" d="M1685.8,543.7c0.9-2.9,1.8-5.7,2.2-8.7c1.6-0.5,2.7,0.2,3.7,1.3c2.1,2.4,3.9,4.9,4.9,7.9
			C1693,544.6,1689.4,545.2,1685.8,543.7z" />
      <path class="st7"
        d="M1551.3,611.6c-0.3,0.4-0.6,0.7-1,1.1c-1.5-0.9-1.8-2.3-1.8-3.9C1549.6,609.5,1550.6,610.3,1551.3,611.6z" />
      <path class="st7" d="M1429.3,530.8c0.5-0.9,1.1-1.6,2.1-1.7l0.2,0.2c0,1.1-0.7,1.8-1.5,2.4
			C1429.8,531.3,1429.5,531.1,1429.3,530.8z" />
      <path class="st6" d="M1353.8,561.7c-1.3-0.3-1.4-0.6-1-2C1354.2,560.5,1354.4,560.8,1353.8,561.7z" />
      <path class="st7" d="M1430.1,531.6c-0.2,0.6-0.5,1.1-1.1,1.4c-0.1-0.5-0.3-1-0.4-1.6c0.2-0.2,0.5-0.5,0.7-0.7
			C1429.5,531.1,1429.8,531.3,1430.1,531.6z" />
      <path class="st6" d="M1330.4,423.5c0.9,0.4,1.2,1.1,1.1,2C1330.2,425.4,1330.7,424.2,1330.4,423.5z" />
      <path class="st7" d="M1510.1,483c-0.4-0.9,0.1-1.4,0.8-1.8c0.1,0.4,0.1,0.8,0.1,1.3C1511,482.9,1510.6,483.1,1510.1,483
			L1510.1,483z" />
      <path class="st6"
        d="M1545.4,574.9c0.3-0.4,0.6-0.8,1-0.4c0.4,0.3,0.2,0.8-0.1,1.2C1546,575.4,1545.7,575.1,1545.4,574.9z" />
      <path class="st6" d="M1399.8,572.3c-0.4,0-0.6-0.2-0.5-0.6c0-0.1,0.2-0.3,0.2-0.4c0.2,0.2,0.3,0.4,0.4,0.6
			C1400.1,572,1399.9,572.2,1399.8,572.3z" />
      <path class="st5" d="M1399.5,569.2c0-0.7,0.5-0.9,1.1-1C1400.5,568.8,1400.2,569.2,1399.5,569.2z" />
      <path class="st6" d="M1352.8,559.9c-1-0.1-1-0.8-1.1-1.5C1352.1,558.9,1352.4,559.4,1352.8,559.9z" />
      <path class="st7" d="M1510.2,483c-0.2,0.1-0.4,0.2-0.6,0.4c0-0.1,0-0.3,0.1-0.4C1509.8,483,1510,483,1510.2,483
			C1510.1,483,1510.2,483,1510.2,483z" />
      <path class="st6" d="M1511.1,482.4c0-0.4-0.1-0.8-0.1-1.3c0.1-0.3,0.3-0.5,0.6-0.6c0.3,0.3,0.6,0.6,0.9,0.9
			C1511.9,481.7,1511.5,482.1,1511.1,482.4z" />
      <path class="st6" d="M1351.8,527.2c0.1-0.2,0.3-0.4,0.4-0.6c0.1,0.2,0.2,0.4,0.2,0.6C1352.3,527.4,1352,527.4,1351.8,527.2
			C1351.7,527.1,1351.8,527.2,1351.8,527.2z" />
      <polygon class="st7" points="1433.4,527.2 1433.5,527.1 1433.3,527.1 		" />
      <path class="st7" d="M1432.4,528.2c0.3-0.3,0.7-0.6,1-1c0,0-0.1-0.1-0.1-0.1C1433.2,527.6,1432.9,528,1432.4,528.2
			C1432.4,528.1,1432.4,528.2,1432.4,528.2z" />
      <path class="st7" d="M1431.4,529.1c0.1-0.6,0.4-0.9,1-0.9c0,0,0,0,0,0c0.1,0.6-0.2,1-0.8,1.2
			C1431.6,529.3,1431.4,529.1,1431.4,529.1z" />
      <path class="st6" d="M1428.6,531.5c0.1,0.5,0.3,1,0.4,1.6c-0.4,0.1-0.6,0.7-1.1,0.2c-0.5-0.5-0.1-0.8,0.1-1.1
			C1428,531.8,1428.3,531.7,1428.6,531.5z" />
      <path class="st5" d="M1698.2,544c0.4-0.2,0.9-0.3,1.3-0.5C1699.1,544,1698.7,544.2,1698.2,544z" />
      <path class="st6" d="M711.4,555.1c0.1-0.8,0.2-1.5,0.9-2c2.3,5.5,4.5,10.9,6.9,16.3c19.7,45.4,45.6,86.9,78.3,124.1
			c38.2,43.4,83,78.2,134.7,104.1c33.7,16.9,69.1,29.2,106.1,37c12.4,2.6,24.8,4.8,37.3,6.3c8.7,1.1,17.5,1.8,26.3,2.4
			c14.6,1,29.1,1,43.6,0.6c11-0.3,22-1.3,33-2.5c14.1-1.6,28.2-3.9,42.1-6.8c23.8-4.9,47.1-11.9,69.8-20.7
			c52.3-20.3,99.3-49.2,141.2-86.4c1.1-1,2.1-1.9,3.3-2.8c5.2-4.3,8-9.9,8.8-16.5c0.1-1.1,0.3-2.2,0.4-3.3c0.3,0,0.5,0,0.8,0
			c0.5,2.3,0.8,4.7,1.5,6.9c0.7,2.3,0.9,4.9,2.4,7c-0.1,0.9-0.2,1.9-0.2,2.8c-0.1,8.6-3.2,15.7-9.8,21.5c-22,19.4-45.3,37-70.4,52.3
			c-22.5,13.6-45.9,25.3-70.3,35c-21,8.3-42.5,15-64.4,20.1c-20.1,4.6-40.4,7.9-61,9.7c-9.2,0.8-18.5,1.4-27.8,1.4
			c-14.2,0-28.4,0.1-42.7-1c-11.6-0.9-23.2-2.2-34.7-3.9c-18.4-2.7-36.4-6.7-54.3-11.8c-41-11.7-79.5-28.9-115.5-51.8
			c-20.8-13.2-40.4-28.1-58.8-44.6c-16.4-14.8-31.8-30.6-45.8-47.7c-4.7-5.7-9.1-11.5-13.7-17.3c-0.7-0.8-1.1-2-2.6-1.8l0,0
			c0-2-0.2-2.3-2-2.9l0,0c0.3-1-0.3-1.6-0.9-2.3c-2.2-3.5-4.3-7.1-6.7-10.4c-4-5.6-7.6-11.4-11.2-17.2c-4.4-7-8.6-14.2-12.4-21.5
			c-3.9-7.6-8.2-15.1-12-22.9c-4.3-8.7-8.3-17.6-11.7-26.7C717.1,570.3,714.2,562.7,711.4,555.1z" />
      <path class="st4" d="M831.3,646.6c5.1,8.1,11.2,15.5,17.1,22.9c4.2,5.2,8.4,10.4,12.7,15.5c2.5,2.9,5.4,5.4,8.1,8.2
			c2.9,3.1,5.7,6.4,8.6,9.6c0.6,0.6,0.6,1.4,0.5,2.3c-3.8-2.2-6.7-5.4-10-8.2c-8.2-7.1-16-14.7-23.5-22.6
			c-13-13.7-25.1-28.1-36.1-43.5c-8.5-11.8-16.4-24-23.6-36.6c-1.3-2.4-2.5-4.8-3.7-7.2c0.3-3.2-0.9-5.9-2.2-8.6
			c-2.2-4.4-4.2-8.9-5.5-13.7c-1.3-4.8-3.1-9.3-4.8-13.9c-1.6-4.3-3-8.8-6-12.4c-1.8-2.2-3.3-4.7-6.4-5.4c-2.3-5.6-4.7-11.2-6-17.1
			c4.3,0.1,7.9,2.3,11.5,4.4c3.9,2.3,7.2,5.3,9.5,9.3c1.5,2.5,3.7,4.4,4.8,7.1c1.2,2.9,2.7,5.8,3.8,8.8c2.4,6.4,4.5,12.9,7.1,19.3
			c2.3,5.8,5.1,11.4,7.4,17.1c2.9,7.3,6.7,14.1,10.1,21.2" />
      <path class="st4" d="M756.7,532.9c3,0.8,4.6,3.3,6.4,5.4c3,3.6,4.4,8.1,6,12.4c1.7,4.6,3.5,9.2,4.8,13.9c1.3,4.7,3.3,9.3,5.5,13.7
			c1.4,2.7,2.6,5.5,2.2,8.6c-1-0.8-1.5-2-2.1-3.1c-8.1-15.2-15.3-30.8-21.5-46.8C757.4,535.7,757.1,534.3,756.7,532.9z" />
      <path class="st7" d="M879.2,705.9c2.7,0,2.7,0,3.1,2.6C881,708,880,707.1,879.2,705.9z" />
      <path class="st4" d="M875.5,186.5c2.3,4.1,3.4,8.6,4.4,13.1c1.6,7.4,2,14.9,1.2,22.4c-2.9-0.1-5.8-0.5-8.6,0.2
			c-9.9,2.2-19.1,6.3-27.6,11.7c-6.6,4.2-12.8,8.9-18.8,13.9c-5.1,4.3-10.3,8.5-15,13.3c-10,10.1-20.5,19.7-29.8,30.5
			c-5.3,6.2-11.4,11.5-16.8,17.7c-6.5,7.4-13.8,14.2-20.4,21.5c-8.5,9.4-18,17.7-27.2,26.3c-2.1,2-4,4.1-6.5,5.7
			c-1.5,0.9-2.5,2.4-3.8,3.6c-0.9,0.9-1,2-0.9,3.1c-9.3-1-17.7-4.5-25.8-9c-2.5-1.4-4.9-2.9-7.3-4.4c-1.1-0.7-2.1-1.4-2.8-2.5
			c0.6-0.5,1.2-1.1,1.8-1.6c7-5.5,14-11.2,20.6-17.2c11.3-10.2,22.3-20.6,32.7-31.6c11.9-12.5,23.9-24.9,35.7-37.4
			c14.7-15.5,29.5-31.1,45.6-45.2c7.5-6.5,15.3-12.6,23.8-17.7c7.5-4.6,15.4-8.4,24.2-10.1c3.3-0.6,6.6-1,9.9-1.5
			c1.6-0.2,2.1-0.8,1.3-2.1c-1.7-2.7-3.4-5.4-5.1-8.1c-0.5-0.7-1.3-0.8-2.1-1c-0.2-1.1-1.1-1.5-2-1.8c-5.7-2.1-11.4-4-17.6-4.6
			c-3.8-0.3-7.6-0.9-11.5-0.6c-8,0.7-15.8,2-23.5,4.4c-12.8,3.9-24.7,9.7-36.1,16.5c-16.6,10-32.1,21.6-46.8,34.2
			c-6.9,5.9-13.6,12.1-20.3,18.3c-7.9,7.3-15.4,14.9-23,22.5c-0.8,0.8-1.7,1.5-2.5,2.2c-0.2-1.6-0.8-3.2-1.9-4.3
			c-2.4-2.4-2.8-6-4.8-8.6c-0.6-0.8-0.8-2.1-1-3.1c-0.3-1.6,0.5-2.4,2-2.7c1,0.1,1.9,0.2,2.9,0.3c5.2,0.4,10.2-0.5,14.9-2.6
			c1.7-0.7,1.9-1.3,1-2.9c-1.8-3.3-2.7-6.7-2.7-10.5c0-5.1,1.4-9.8,3.4-14.3c3.7-8.2,8.9-15.5,15-22c14.2-15.4,31.6-26.1,50.9-34
			c2.1-0.1,4.2,0.2,6.2-0.2c6-1.3,12.2-1.8,18.3-3c5.7-1,11.5-0.1,17-1.7c4.6,0.2,9.2-0.6,13.8,0.8c0.7,0.2,1.6,0.2,2.4,0.1
			c4.7-0.5,9.2,0.6,13.7,1.2c5.1,0.7,10.4,1.4,15.3,3.2c3.3,1.2,6.8,1.8,10.3,1.3c2,0.7,3.9,1.8,5.7,3c0.2,0.5,0.5,0.8,1.1,0.8
			c0.2,0.1,0.5,0.2,0.7,0.3c0.2,0.5,0.5,0.8,1.1,0.8c1.4,1,2.9,1.9,4.2,2.9c2,1.5,3.8,3.2,5.8,4.8c0.5,0.4,1.1,0.6,1.6-0.1
			c0,0,0,0,0,0c-1,1.3,0.2,1.8,0.9,2.5c0,1.3,0.8,2,2,2.3c0,0,0,0,0,0C874.9,185.8,875.2,186.2,875.5,186.5z" />
      <path class="st6" d="M556.9,377.4c-4.1-3.4-8.1-6.9-11.3-11.1c-0.3-0.3-0.8-0.5-1.2-0.8c0-1.3,0.1-2.6,0.1-4
			c6.3,5.1,13.3,8.8,21.2,10.9c6.8,1.9,13.8,2.5,20.9,2.4c12-0.1,23.4-3.1,34.5-7.5c5.5-2.2,10.8-4.8,16-7.6
			c2.2-1.2,2.4-1.2,4.1,0.7c3,3.1,5.9,6.3,8.8,9.5c6.2,6.6,12.6,13.2,19.6,19.1c14.3,12,30.6,19.5,48.8,23.1
			c12.5,2.4,25.1,3.1,37.7,1.5c14.9-1.9,29-6.3,42.5-12.8c18.1-8.6,34.1-20.1,48.5-34c24.5-23.5,43-51,54.7-82.9
			c4.6-12.5,7.8-25.4,9-38.7c1.3-14.9,0.6-29.7-4.2-44.1c-0.3-0.8-0.4-1.5-0.6-2.3c0.6-0.5,1.1-0.3,1.5,0.4
			c2.2,4.1,3.8,8.4,5.3,12.7c0.6,1.6,0.8,3.4,2,4.8c0.2,1.4,0.3,2.9,0.6,4.3c3.1,13.6,3.1,27.3,1.2,41c-1.9,13.5-5.5,26.6-10.6,39.2
			c-6.8,17.2-16,33.1-26.8,48c-0.7,1-1.9,1.8-1.7,3.3c0,0,0,0,0,0c-1,0.2-1.5,0.8-1.1,1.8c0,0,0.1,0,0.1,0c-0.8-0.1-1.1,0.3-1,1
			c0,0,0,0,0,0c-0.8-0.1-1,0.3-1,1c0,0,0,0,0,0c-0.8,0-1.1,0.5-1.3,1.1c-2.7,3.1-5.4,6.3-8.1,9.4c-0.8,0.4-1.4,0.9-1.4,1.9
			c0,0,0.1-0.1,0.1-0.1c-0.6,0.1-1,0.5-0.9,1.1c0,0,0.1-0.1,0.1-0.1c-0.7,0-1,0.4-0.9,1.1c0,0,0,0,0,0c-0.7-0.1-1.2,0.3-1.7,0.8
			c-1.7,1.7-3.4,3.4-5.1,5.1c-15.4,15.2-32.7,27.6-52.4,36.7c-13.6,6.3-27.8,10.6-42.7,12c-13.4,1.3-26.8,0.5-40-2.7
			c-16.6-4-31.5-11.3-44.5-22.4c-7.4-6.3-14.1-13.4-20.8-20.6c-2.6-2.8-5.3-5.6-7.9-8.4c-0.9-1-1.8-1-3-0.4
			c-3.4,1.8-6.8,3.5-10.3,5.2c-11.1,5.2-22.6,8.9-34.8,10C584.2,387.2,570,384.9,556.9,377.4z" />
      <path class="st6"
        d="M858.3,180.1c0.8,0.2,1.6,0.3,2.1,1c1.7,2.7,3.5,5.3,5.1,8.1c0.8,1.3,0.3,1.9-1.3,2.1
			c-3.3,0.5-6.7,0.8-9.9,1.5c-8.7,1.7-16.6,5.5-24.2,10.1c-8.5,5.1-16.3,11.2-23.8,17.7c-16.1,14.1-30.9,29.7-45.6,45.2
			c-11.9,12.5-23.9,24.9-35.7,37.4c-10.4,11-21.5,21.5-32.7,31.6c-6.7,6-13.6,11.6-20.6,17.2c-0.6,0.5-1.2,1-1.8,1.6
			c-4.2-1.7-7.4-4.9-11-7.2c0.2-1.1,0.9-1.5,1.5-2c23.4-17.4,44.2-37.7,64.3-58.8c16.3-17.1,32.6-34.3,49-51.3
			c10.9-11.3,22.1-22.1,34.4-31.9c6.4-5.1,13-9.8,20.2-13.6c6.6-3.6,13.6-6.4,21-7.7C852.3,180.6,855.3,180.5,858.3,180.1z" />
      <path class="st6" d="M754.7,166.3c-19.3,7.8-36.6,18.6-50.9,34c-6.1,6.6-11.3,13.8-15,22c-2,4.5-3.4,9.3-3.4,14.3
			c0,3.8,0.8,7.2,2.7,10.5c0.9,1.7,0.7,2.2-1,2.9c-4.7,2.1-9.7,3.1-14.9,2.6c-1-0.1-1.9-0.2-2.9-0.3c-0.5-0.3-1.1-0.7-1.6-0.8
			c-3.4-1.1-6.2-3-8.6-5.6c-1.4-1.7-2.8-3.3-4.3-5c-0.2-0.6-0.3-1.2-0.5-1.8c-0.4-0.8-0.2-1.5,0.6-1.9c8.2,5.5,16.8,5.1,25.6,1.6
			c0.7-0.3,1.4-0.7,2-1.1c-0.1-0.5-0.1-0.8-0.3-1.1c-4.1-6.3-4-12.9-2-19.8c1.7-5.9,4.5-11.2,7.9-16.3c6.3-9.4,14-17.4,22.9-24.3
			c18-14,38.1-23.9,60.4-28.7c24.5-5.2,48.3-2.6,71.1,7.6c10.7,4.7,19.9,11.5,26.9,21c1,1.3,2.6,2.5,2.3,4.5
			c-0.5,0.6-1.1,0.5-1.6,0.1c-1.9-1.6-3.8-3.2-5.8-4.8c-1.3-1.1-2.8-2-4.2-2.9c-0.2-0.5-0.5-0.8-1.1-0.8c-0.2-0.1-0.5-0.2-0.7-0.3
			c-0.2-0.5-0.6-0.7-1.1-0.8c-1.8-1.2-3.6-2.3-5.7-3c-0.6-1-1.8-1.3-2.8-1.8c-5.6-2.7-11.5-4.7-17.6-6.2c-7.6-2-15.2-3.4-23.1-3.5
			c-5.4,0-10.9,0-16.3,0.1c-1.1,0-2.2,0-3.3,0.2c-7.4,1.2-14.8,2.6-22,4.7C762.5,162.8,758.3,163.8,754.7,166.3z" />
      <path class="st6" d="M571.2,338.2c-2.9-0.2-5.1-1.7-7.1-3.6c-3.3-3-2.7-6.3,1.2-8.5c1.5-0.8,3.2-1.4,5-1.6
			c4.1-0.6,8.3-0.5,12.4,0.3c7.2,1.4,14.1,3.7,20.8,6.8c-1.9,2.3-4.8,3.9-10.2,5.5c-3.2-1.3-6.7-1.4-10.1-1.8
			c-1.1-0.1-2.2-0.2-3.3,0C576.9,335.9,573.6,335.7,571.2,338.2z" />
      <path class="st7" d="M571.2,338.2c2.4-2.5,5.7-2.3,8.7-2.9c1.1-0.2,2.2-0.2,3.3,0c3.4,0.4,6.9,0.6,10.1,1.8
			c-6.7,3.2-13.7,3.8-20.9,1.8C572,338.8,571.6,338.4,571.2,338.2z" />
      <path class="st7"
        d="M874.7,185.4c-1.2-0.3-1.9-1-2-2.3c0.1-0.5,0.2-1,0.3-1.5C874.1,182.6,874.9,183.8,874.7,185.4z" />
      <path class="st6"
        d="M873,181.6c-0.1,0.5-0.2,1-0.3,1.5c-0.7-0.7-1.9-1.2-0.9-2.5C872.6,180.4,872.8,181.1,873,181.6z" />
      <path class="st7" d="M875.5,186.5c-0.3-0.4-0.6-0.8-0.8-1.1C875.3,185.5,875.5,186,875.5,186.5z" />
      <path class="st6" d="M544,361c-0.8-0.2-1.2-0.7-1.4-1.4C543,360.1,543.5,360.6,544,361z" />
      <path class="st4" d="M556.9,377.4c13.1,7.4,27.3,9.8,42.1,8.5c12.2-1.1,23.8-4.8,34.8-10c3.5-1.6,6.9-3.4,10.3-5.2
			c1.2-0.6,2-0.6,3,0.4c2.6,2.8,5.2,5.6,7.9,8.4c6.7,7.1,13.4,14.2,20.8,20.6c13,11.1,27.9,18.4,44.5,22.4c13.2,3.2,26.6,4,40,2.7
			c14.9-1.4,29.1-5.7,42.7-12c19.7-9.1,37-21.6,52.4-36.7c1.7-1.7,3.4-3.4,5.1-5.1c0.5-0.5,1-0.8,1.7-0.8c0.2,1.5-0.9,2.3-1.6,3.4
			c-3.4,4.9-6.3,10-8.6,15.4c-2.6,6-4.3,12.3-4.3,19c0,6,1.7,11.3,5.8,15.7c-0.1,1-0.4,2.1,1.1,2.3c0,0,0-0.1,0-0.1
			c-0.5,0.7-0.2,1.3,0,2c-0.3,0-0.6,0-1,0c-7.4-0.9-13.7,2.2-19.8,5.8c-6.9,4.1-14.1,7.6-21.5,10.4c-6.7,2.5-13.5,4.7-20.5,6.2
			c-1.4,0.3-2.8,0.5-4.2,0.7c-4.1,0.5-8.2,1.1-12.3,1.6c-1.1,0.1-2.2,0.3-3.3,0.3c-4.5,0-9,0.2-13.4,0c-3.6-0.2-7.3-0.7-10.9-1.2
			c-6.4-1-12.7-2.8-19.1-4.3c-3-0.7-5.7-2.1-8.4-3.3c-5.8-2.5-11.7-5.1-16.7-9.2c-2.2-1.8-4.9-2.9-7.1-4.8c-3.1-2.7-6.6-5-9.5-8
			c-4.1-4.3-8.4-8.3-13-12c-4.7-3.7-9.8-6.3-16.2-6.2c-5.5,0.1-10.6,1.3-15.8,3.1c-6,2.1-12.1,3.7-18.4,4.8
			c-4.1,0.7-8.3,0.2-12.3,1.6c-0.7,0.3-1.6,0.2-2.4,0.1c-7.5-1-15.3-1.1-22.5-3.8c-7.5-2.9-14.3-6.9-19.9-12.9
			c-4.7-5-7.7-10.9-10.1-17.2C555.8,378.9,556,378.1,556.9,377.4z" />
      <path class="st4"
        d="M1037.7,388.8c1,0.2,1.8,0.6,2.1,1.7c0.8,2.5,2.6,3.5,5.2,3.3c3.5-0.3,6.6,1.1,9.6,2.6c2.6,1.3,4.2,3.3,5,6.1
			c0.3,1.3,0.4,2.4,0,3.7c-1.2,4.1-3.2,7.7-6,10.8c-7.8,8.5-15.3,17.2-23.9,24.8c-6.8,6-12.8,12.9-20.4,18
			c-3.7,2.5-7.1,5.4-10.4,8.4c-1.7,1.5-3.8,2.3-5.7,3.6c-2.6,1.8-5,4-7.9,5.3c-2.6,1.2-5.3,2.2-7.7,3.8c-3.8,2.6-8.4,2.8-12.3,5
			c-3.8,0-7.5,1.6-11.3,0.2c-1.3-0.5-2.8-0.6-4.2-1.1c-1.2-0.4-2.6-0.9-3.4-1.7c-2.2-2.5-5.6-3.8-7.2-6.9
			c-4.8-3.3-8.3-8.3-14.2-10.3c-2.9-1-5.6-1.3-8.4-0.8c-5,0.9-10.1,1.3-14.9,3.3c-8.9,1.1-17.2-0.3-24-6.7c-2.9-2.8-5.1-6-7.1-9.5
			c-1.7-3.1-2.8-6.4-4.2-9.6c-0.6-1.4,0.6-1.5,1.5-1.8c7.3,2.1,14.4,1.8,21.5-0.8c3.6-1.3,7.1-2.8,10.4-4.8
			c4.3-2.7,8.5-5.6,12.8-8.3c0.2,1.1,0.3,2.2,0.4,3.2c0.5,6,2.8,11.1,7.6,15c0.9,7.1,5.2,11.4,11.6,13.8c3.5,1.3,7.2,1.5,10.9,0.8
			c3.6-0.7,7.1-1.6,10.6-3c9.6-3.8,18.2-9.3,26.4-15.3c13.6-9.8,26.1-21,38-32.8C1024.8,402,1031.2,395.3,1037.7,388.8z" />
      <path class="st4" d="M914.8,216.8c2,0.5,3.3,1.7,4.2,3.6c2.4,5.2,4.9,10.3,7.3,15.5c2.5,5.4,3.7,11.1,5,16.9
			c2.1,9.4,2.1,18.9,2,28.5c-1.2,4.1-0.9,8.5-1.6,12.7c-1,6-2.3,11.8-3.8,17.7c-0.5,1.7-0.3,3.5-0.2,5.2c-4.5,2.6-9.1,5.2-13.6,7.9
			c-7,4.2-13.4,9.1-19.6,14.4c-4.9,4.1-9.6,8.4-14.3,12.6c-0.7,0.6-1.4,1.4-2.5,0.9c-0.1-1.5,1-2.3,1.7-3.3
			c10.9-14.9,20-30.8,26.8-48c5-12.7,8.7-25.7,10.6-39.2c1.9-13.7,1.8-27.4-1.2-41C915.1,219.6,915,218.2,914.8,216.8z" />
      <path class="st6" d="M895.6,409.2c-1.5,0.3-2.9,0.1-4.2-0.5c-2-1-3.2-2.6-3.4-4.9c-0.1-1.6,0.1-3.2,0.6-4.7c1-3.1,2.5-5.9,4.1-8.6
			c3.5-5.6,7.5-10.7,11.9-15.6c11-12.1,22.3-23.8,34.4-34.6c4.9-4.4,10-8.5,15.6-11.9c3.8-2.4,7.8-4.3,12.3-5.1
			c2.1-0.4,4.1-0.1,6.1,0.5c2.2,0.7,3.5,2.3,3.5,4.6c0,2.3-0.1,4.5-1.6,6.3c-1.1-0.4-2.1-0.3-3.2,0.1c-3,0.9-5.9,2-8.6,3.6
			c-2.1,1.3-4.6,2.1-6,4.4c-0.3,0.1-0.5,0.2-0.7,0.4c-0.6,0-0.9,0.3-1,0.8c-4.9,3.5-9.6,7.5-14,11.6c-9.2,8.6-18.1,17.7-26.7,26.9
			c-4.6,4.9-8.9,10-12.8,15.5C899.3,401.4,896.9,405,895.6,409.2z" />
      <path class="st6" d="M1037.7,388.8c-6.5,6.6-12.9,13.2-19.5,19.8c-11.9,11.8-24.4,23-38,32.8c-8.3,6-16.9,11.5-26.4,15.3
			c-3.4,1.4-7,2.3-10.6,3c-3.7,0.7-7.4,0.6-10.9-0.8c-6.4-2.4-10.8-6.7-11.6-13.8c6.9,4.3,14.2,4.2,21.6,1.9
			c6.1-1.9,11.9-4.6,17.4-7.8c2.5-1.4,5-2.7,7.6-4.1c2.1,0.4,3.7-0.7,5.4-1.5c7-3.2,13.3-7.5,19.5-12.1c18.9-14,35.6-30.3,51.1-48
			c0.9-1,1.6-2,2.9-2.4c0.6,0.3,1.2,0.5,1.7,0.9c1.5,1.1,1.8,2.3,0.8,3.6c-1.4,1.9-3,3.7-4.6,5.5
			C1042,383.6,1039.2,385.7,1037.7,388.8z" />
      <path class="st4" d="M895.6,409.2c1.3-4.2,3.7-7.8,6.2-11.3c3.9-5.5,8.2-10.6,12.8-15.5c8.6-9.2,17.5-18.2,26.7-26.9
			c4.4-4.1,9.1-8.1,14-11.6c0.5-0.1,0.8-0.3,1-0.8c0.2-0.1,0.5-0.3,0.7-0.4c1.7,0.2,3.4,0.2,5.1-0.4c0.9-0.3,1.8-0.5,2.7-0.4
			c2.4,0.1,4.6-0.5,6.9-1c-0.5,2.3-2.1,3.9-3.4,5.7c-4.6,6.3-9.7,12.2-14.9,18.1c-5.6,6.3-11.6,12.4-17.7,18.2
			c-7.2,6.8-14.5,13.5-22.8,19c-3.6,2.4-7.2,4.7-11.3,6.3C899.7,409,897.8,409.5,895.6,409.2z" />
      <path class="st6" d="M912.6,426.8c-4.3,2.8-8.5,5.6-12.8,8.3c-3.2,2-6.7,3.5-10.4,4.8c-7.1,2.6-14.3,2.8-21.5,0.8
			c-0.4-0.8-1.2-1-1.9-1.3c-4.1-1.8-7.2-4.7-9.5-8.5c-0.6-0.9-0.9-2.1-2-2.6c-0.2-0.7-0.5-1.3,0-2c0.8-0.8,1.5,0,2,0.4
			c2.7,1.7,5.7,2.8,8.8,3.6c6,1.4,11.7,0.4,17.4-1.5c5.3-1.8,10.2-4.5,14.9-7.5c5.5-3.5,10.6-7.6,15.6-11.7c1.4-1.2,2.7-2.8,4.5-3.4
			c0.1,0.2,0.3,0.3,0.4,0.5c-0.5,1.2-0.9,2.4-1.4,3.6c-2,4.7-3.4,9.6-3.8,14.8C913,425.6,912.8,426.2,912.6,426.8z" />
      <path class="st4" d="M1046.2,371.1c-1.3,0.4-2,1.4-2.9,2.4c-15.5,17.7-32.2,34-51.1,48c-6.2,4.5-12.5,8.8-19.5,12.1
			c-1.7,0.8-3.4,1.9-5.4,1.5c1.7-2,4-3.2,6-4.7c8.4-6.1,16.4-12.8,24.1-19.6c9.7-8.6,18.8-17.8,27.7-27.2c6.1-6.3,11.8-13,17.7-19.5
			c0.8,0.1,1.7,0.3,2,1.1C1045.7,367.1,1046.6,369,1046.2,371.1z" />
      <path class="st4" d="M971.7,340.9c-2.3,0.5-4.5,1.1-6.9,1c-0.9-0.1-1.9,0.1-2.7,0.4c-1.7,0.6-3.4,0.5-5.1,0.4
			c1.4-2.3,3.9-3.1,6-4.4c2.7-1.6-0.3-0.7,2.7-1.6c1.1-0.3,8.1-2.5,9.2-2.1C974.4,337,973.2,339,971.7,340.9z" />
      <path class="st5" d="M876.4,354.3c-0.3-1.1,0.1-1.6,1.1-1.8C877.9,353.5,877.5,354.1,876.4,354.3z" />
      <path class="st5" d="M863.8,368.6c0-1,0.6-1.5,1.4-1.9C865.1,367.7,864.8,368.4,863.8,368.6z" />
      <path class="st6"
        d="M854.6,426.4c-1.5-0.2-1.2-1.3-1.1-2.3c0.4,0.4,0.8,0.8,1.2,1.2C855.1,425.7,854.8,426,854.6,426.4z" />
      <path class="st6"
        d="M917.8,406.1c0.1-0.4,0.3-0.9,0.8-0.5c0.4,0.3,0,0.7-0.3,1C918.1,406.5,917.9,406.3,917.8,406.1z" />
      <path class="st5" d="M862.1,370.7c-0.1-0.7,0.2-1,0.9-1.1C863,370.2,862.8,370.6,862.1,370.7z" />
      <path class="st5" d="M863,369.7c-0.1-0.7,0.3-1,0.9-1.1C863.9,369.2,863.6,369.6,863,369.7z" />
      <path class="st5" d="M873.3,357.3c0.3-0.6,0.6-1.1,1.3-1.1C874.5,357,874,357.3,873.3,357.3z" />
      <path class="st5" d="M874.6,356.3c-0.1-0.7,0.2-1.1,1-1C875.5,355.9,875.2,356.2,874.6,356.3z" />
      <path class="st5" d="M875.5,355.3c-0.1-0.7,0.1-1.2,1-1C876.5,354.9,876.2,355.3,875.5,355.3z" />
      <path class="st4" d="M856.5,79.7c0.8,0.1,1.6,0.2,2.4,0.2c8,0.8,14.7-1.8,20.6-7.1c16.6-14.8,34.3-28.2,53.1-40.2
			c27.1-17.3,55.7-31.3,86-42c19.8-7,40-12.3,60.6-16.1c10-1.8,20.2-3.2,30.3-4.3c20.6-2.3,41.2-2.4,61.8-1.5
			c11.3,0.5,22.6,1.7,33.8,3.3c15,2.2,29.9,5.1,44.6,9c34.5,9.1,67.2,22.5,98,40.5c34.7,20.1,65.4,45.2,92.6,74.7
			c15,16.3,28.4,33.7,40.5,52.2c0.5,0.8,1,1.7,1.5,2.5c-0.4,0.6-1,1-1.6,0.6c-0.7-0.4-1.3-1-1.7-1.6c-4-5.2-8.2-10.1-12.3-15.2
			c-3.6-4.5-8.3-8-11.3-12.9c-0.6-0.9-1.5-1.6-2.3-2.4c-3.7-3.7-7.5-7.5-11.2-11.2c-5.9-5.9-12.3-11.1-18.4-16.7
			c-4.3-3.9-8.7-7.4-13.2-11c-4.9-3.8-9.6-7.8-15-11c-0.4-0.2-0.9-0.4-1.2-0.7c-3.4-3.9-8.3-5.9-12.4-8.9c-3.7-2.7-7.8-4.8-11.8-7
			c-2.2-1.2-4.2-2.8-6.4-4.1c-8.5-5-17.6-9.1-26.4-13.6c-8.3-4.2-16.7-7.9-25.5-11c-6.9-2.5-13.6-5.5-20.6-7.7
			c-7.7-2.4-15.4-5.3-23.4-6.6c-4.7-2-9.8-2.6-14.7-3.8c-6.3-1.6-12.7-2.9-19.2-3.8c-5.5-0.8-10.9-2.1-16.5-2.6
			c-4.3-0.3-8.5-1.6-12.8-1.2c-0.8,0.1-1.7,0.2-2.4-0.1c-4.2-1.3-8.6-0.8-12.9-0.9c-1.6,0-3.2-0.1-4.7-0.5c-1.4-0.4-2.8-0.4-4.3-0.4
			c-9.8,0-19.5-0.2-29.3,0.1c-5.1,0.2-10.1,1.1-15.2,0.9c-3.1,1.2-6.3,0.7-9.5,1c-3.6,0.3-7.2,1-10.8,1.5c-3.3,0.5-6.6,0.8-9.9,1.3
			c-4.5,0.7-9.1,1.6-13.6,2.3c-8.5,1.3-16.8,3.7-25.2,5.4c-2.6,0.5-5.1,1.7-7.7,2.4c-7.3,1.9-14.2,4.7-21.4,6.8
			c-4.4,1.3-8.8,2.8-13,4.6c-5.2,2.2-10.7,4.1-15.8,6.6c-2.4,1.2-5,2.1-7.4,3.3c-6,2.9-11.9,6.1-18,8.9
			c-9.7,4.5-18.6,10.4-27.9,15.7c-6.8,3.9-13.1,8.4-19.6,12.9c-7.6,5.2-15,10.7-22.2,16.5c-5.6,4.5-10.9,9.3-16.9,13.3
			c-3.2,2.1-6.5,4.2-10.1,5.3c-3.4,1-7,2.1-10.7,0.8c-1.2-0.4-2.4-0.8-3.7-0.9c-1.8-0.2-3.3-1.1-4.8-2c-4.9-2.9-7.7-7.5-10.1-12.4
			c-0.9-1.9-1.6-3.8-2.3-5.8c-0.3-0.9-0.4-1.9-0.5-2.8C854.4,80.5,855.4,80,856.5,79.7z" />
      <path class="st7" d="M1554.4,259.5c-2.9,1.3-5.8,1.4-8.7,0C1548.5,259.5,1551.5,259.5,1554.4,259.5z" />
      <path class="st3"
        d="M1484.3,394.7c1.1,2.5,2.2,5.1,3.4,7.6c0.2,1.4,0.4,2.9,0.5,4.3c0.3,8.9-3.3,15.9-10.9,20.5
			c-7.6,4.6-15.5,4.2-23.2,0c-1.1-0.6-1.9-1.7-3.3-1.8c0,0,0,0.1,0,0.1c0-0.8-0.5-1.1-1-1.5c-1.6-2.2-3.2-4.3-4.8-6.5
			c-0.4-1.7-0.8-3.4-1.3-5.1c-2.5-8.9,3.2-23.2,16.8-26.3c9.1-2,16.7,0.8,22.8,7.7C1483.6,394.1,1483.9,394.4,1484.3,394.7z" />
      <path class="st7" d="M1359.4,418.7c1.1-1.2,2.5-1,3.9-0.9C1362.2,419,1360.8,418.8,1359.4,418.7z" />
      <path class="st7" d="M1498.6,610.8c3.5,0,7.1,0,10.6,0C1505.7,612.2,1502.1,612.4,1498.6,610.8z" />
      <path class="st7" d="M1261.5,300.6c0.4-0.8,1.1-1,2-0.9C1263,300.5,1262.3,300.7,1261.5,300.6z" />
      <path class="st7" d="M1264.3,299.5c0.3-0.5,0.6-0.7,1.2-0.6C1265.2,299.4,1264.8,299.6,1264.3,299.5z" />
      <path class="st6" d="M1450.7,425.4c1.4,0,2.2,1.2,3.3,1.8c7.7,4.3,15.6,4.6,23.2,0c7.6-4.6,11.1-11.6,10.9-20.5
			c0-1.4-0.3-2.9-0.5-4.3c0.1,0.1,0.3,0.1,0.4,0.2c3.2,4.1,5.5,8.6,5.8,13.8c0.2,2.7,0,5.4,0,8.1c-1.1,3.9-2.9,7.4-5.8,10.2
			c-5.9,5.9-13,8.2-21.3,6.4c-0.6-0.1-1.2-0.2-1.9-0.3c-2.3-1.3-4.7-2.6-6.9-4c-3.7-2.4-5.7-6.2-7.5-10.1
			C1450.4,426.4,1450.7,425.8,1450.7,425.4z" />
      <path class="st6" d="M1449.7,423.9c0.5,0.4,1.1,0.7,1,1.5C1450,425.2,1449.8,424.6,1449.7,423.9z" />
      <path class="st4"
        d="M1092.5,467.6c0.7-5.7,4.5-8.9,9.3-11.1c3.3-1.5,6.8-1.7,10.3-0.9c6.4,1.5,12.3,4.2,17.1,9
			c-1.9,0.6-3.4-0.4-5.1-0.9c-3.7-1.2-7.4-2-11.2-1.7c-6.5,0.5-12.9,1.7-18.6,5.2C1093.8,467.4,1093.1,467.4,1092.5,467.6z" />
      <path class="st7" d="M1129.9,465c0.6,0,0.9,0.3,1,0.8C1130.4,465.7,1130.1,465.4,1129.9,465z" />
      <path class="st4" d="M1448.7,718.7c3.9,2.2,7,5.1,8.7,9.2c1.6,3.8,3.3,7.6,4.2,11.7c0.3,1.7,0.7,3.4,0.7,5.2
			c-0.1,2.8,0.4,5.6,0.1,8.5c-0.7,7-3.2,12.9-8.3,17.8c-2.6,2.6-5.1,5.3-7.8,7.8c-2.8,2.6-5.7,5-8.7,7.4c-4,3.2-8,6.3-12,9.4
			c-1.5,1.2-3,2.4-4.5,3.5c-5.8,4.2-11.5,8.5-17.4,12.5c-5.5,3.7-11.3,7.2-17,10.6c-7.9,4.7-15.8,9.6-24,13.9
			c-8,4.2-16.1,8.6-24.5,12c-3.8,1.6-7.5,3.5-11.3,5.2c-12.7,5.5-25.8,10.2-39,14.5c-2.7,0.9-5.4,2-8.1,3c-6.6,2.4-13.3,4-20.1,5.7
			c-11.7,2.9-23.6,4.9-35.4,7.6c-5.8,0-11.2,2.2-17,2.1c-3.5,1.4-7.3,0.5-10.8,1.7c-1.2,0.4-2.5,0.2-3.8,0.2c-2.2,0.1-4.4,0-6.6,0.7
			c-1.6,0.5-3.5,0.2-5.2,0.3c-3.2,0.1-6.4-0.3-9.5,0.8c-1,0.3-2.2,0.2-3.3,0.2c-11.4,0-22.7,0-34.1,0c-1,0-2,0.2-2.9-0.1
			c-3.7-1.2-7.6-0.8-11.4-0.9c-1.8,0-3.5,0.1-5.2-0.6c-0.4-0.2-0.9-0.3-1.4-0.3c-4.5,0.5-8.8-1-13.3-1.1c-3.8-0.1-7.5-1-11.3-1.6
			c-4.7-0.7-9.4-1.4-14.1-2.2c-3.9-0.7-7.8-1.4-11.7-2.2c-6.7-1.5-13.3-3.2-20-4.7c-13.4-2.9-26.5-7.1-39.4-11.6
			c-10.2-3.6-20.4-7.4-30.2-12.1c-6.2-2.9-12.5-5.6-18.7-8.5c-3-1.4-5.8-3.4-8.8-4.8c-8.8-4.2-17.1-9.3-25.4-14.3
			c-7-4.2-13.7-8.7-20.6-13.1c-0.3-0.2-0.5-0.3-0.8-0.6c-5.6-5.2-12.4-8.9-18.3-13.8c-4.3-3.5-8.4-7.3-12.9-10.6
			c-3.9-2.8-6.8-6.7-10.9-9.2c-0.3-0.2-0.5-0.4-0.7-0.6c-6.8-6.5-13.9-12.7-20.4-19.6c-4.4-4.7-8.8-9.2-13.1-13.9
			c-4-4.3-7.8-8.9-11.5-13.4c-3.7-4.5-7.4-9.2-10.9-13.9c-7.2-9.5-14.2-19.2-20.7-29.2c-1.2-1.8-2.3-3.4-2.1-5.7
			c1.4-0.2,1.9,0.9,2.6,1.8c4.6,5.8,9,11.6,13.7,17.3c14,17.1,29.4,32.9,45.8,47.7c18.3,16.5,37.9,31.4,58.8,44.6
			c36,22.9,74.5,40.1,115.5,51.8c17.8,5.1,35.9,9.1,54.3,11.8c11.5,1.7,23.1,3,34.7,3.9c14.2,1.1,28.4,1,42.7,1
			c9.3,0,18.5-0.6,27.8-1.4c20.5-1.9,40.9-5.1,61-9.7c22-5.1,43.5-11.7,64.4-20.1c24.4-9.7,47.8-21.4,70.3-35
			c25.1-15.2,48.4-32.9,70.4-52.3c6.6-5.8,9.8-12.9,9.8-21.5C1448.4,720.6,1448.6,719.7,1448.7,718.7z" />
      <path class="st5" d="M776.8,681.7c-1.9-0.5-1.9-0.5-2-2.9C776.6,679.5,776.8,679.7,776.8,681.7z" />
      <path class="st5" d="M774.9,678.9c-2-0.6-2-0.6-0.9-2.3C774.6,677.2,775.1,677.9,774.9,678.9z" />
      <path class="st4" d="M754.7,166.3c3.6-2.5,7.8-3.5,11.9-4.7c7.2-2.1,14.6-3.5,22-4.7c1.1-0.2,2.2-0.2,3.3-0.2
			c5.4,0,10.9-0.1,16.3-0.1c7.9,0,15.5,1.5,23.1,3.5c6,1.6,12,3.5,17.6,6.2c1,0.5,2.1,0.8,2.8,1.8c-3.6,0.5-7-0.1-10.3-1.3
			c-5-1.8-10.2-2.5-15.3-3.2c-4.5-0.6-9.1-1.8-13.7-1.2c-0.8,0.1-1.6,0.1-2.4-0.1c-4.5-1.5-9.2-0.6-13.8-0.8
			c-5.6,1.6-11.3,0.6-17,1.7c-6.1,1.1-12.2,1.6-18.3,3C758.9,166.5,756.8,166.2,754.7,166.3z" />
      <path class="st7" d="M859.2,172.1c0.5,0,0.9,0.3,1.1,0.8C859.7,172.9,859.4,172.6,859.2,172.1z" />
      <path class="st7" d="M857.4,171c0.5,0,0.9,0.3,1.1,0.8C857.9,171.8,857.6,171.5,857.4,171z" />
      <path class="st7" d="M956.4,343.1c-0.2,0.5-0.5,0.7-1,0.8C955.5,343.3,955.8,343,956.4,343.1z" />
    </g>
  </g>
</svg>